<svg width="61" height="60" viewBox="0 0 61 60" fill="none" xmlns="http://www.w3.org/2000/svg">
<rect x="0.5" width="60" height="60" rx="30" fill="#FACC15" fill-opacity="0.08"/>
<path d="M19.86 22.1601V41.0545C19.86 41.8777 20.5527 42.8801 21.4056 42.8801H40.0077C40.8583 42.8801 41.7 41.8777 41.7 41.0545V22.1601H19.86ZM30.7576 37.1546C27.476 37.1546 24.8154 34.582 24.8154 31.4073C24.8154 28.2327 27.476 25.6601 30.7576 25.6601C34.0392 25.6601 36.6997 28.2327 36.6997 31.4073C36.6997 34.5825 34.0392 37.1546 30.7576 37.1546ZM40.0077 16.5601H21.4056C20.5527 16.5601 19.86 17.1385 19.86 17.9629V21.0401H41.7V17.9629C41.7 17.1385 40.8583 16.5601 40.0077 16.5601ZM27.14 19.9201H20.98V17.6801H27.14V19.9201ZM37.8617 19.7633C37.1623 19.7633 36.5973 19.215 36.5973 18.538C36.5973 17.8621 37.1623 17.3138 37.8617 17.3138C38.5612 17.3138 39.1279 17.8621 39.1279 18.538C39.1273 19.2145 38.5612 19.7633 37.8617 19.7633Z" fill="#FFC02D"/>
</svg>
