<svg width="61" height="60" viewBox="0 0 61 60" fill="none" xmlns="http://www.w3.org/2000/svg">
<rect x="0.5" width="60" height="60" rx="30" fill="#309E2E" fill-opacity="0.08"/>
<path fill-rule="evenodd" clip-rule="evenodd" d="M18.8335 29.9997C18.8335 23.5597 24.0485 18.333 30.5002 18.333C36.9402 18.333 42.1668 23.5597 42.1668 29.9997C42.1668 36.4397 36.9402 41.6663 30.5002 41.6663C24.0485 41.6663 18.8335 36.4397 18.8335 29.9997ZM25.2735 31.3997C24.5035 31.3997 23.8735 30.7697 23.8735 29.9997C23.8735 29.2297 24.5035 28.6008 25.2735 28.6008C26.0435 28.6008 26.6618 29.2297 26.6618 29.9997C26.6618 30.7697 26.0435 31.3997 25.2735 31.3997ZM29.1002 29.9997C29.1002 30.7697 29.7302 31.3997 30.5002 31.3997C31.2702 31.3997 31.8885 30.7697 31.8885 29.9997C31.8885 29.2297 31.2702 28.6008 30.5002 28.6008C29.7302 28.6008 29.1002 29.2297 29.1002 29.9997ZM34.3268 29.9997C34.3268 30.7697 34.9452 31.3997 35.7268 31.3997C36.4968 31.3997 37.1152 30.7697 37.1152 29.9997C37.1152 29.2297 36.4968 28.6008 35.7268 28.6008C34.9452 28.6008 34.3268 29.2297 34.3268 29.9997Z" fill="#309E2E"/>
</svg>
