<svg width="61" height="60" viewBox="0 0 61 60" fill="none" xmlns="http://www.w3.org/2000/svg">
<rect x="0.5" width="60" height="60" rx="30" fill="#00BCD4" fill-opacity="0.08"/>
<path d="M38.8417 25.3332C38.6381 24.9805 38.3458 24.6873 37.9937 24.4826C37.6417 24.2779 37.2422 24.169 36.835 24.1665H34V21.8332C34 21.5238 33.8771 21.227 33.6583 21.0082C33.4395 20.7894 33.1428 20.6665 32.8334 20.6665H21.1667C20.5479 20.6665 19.9544 20.9123 19.5168 21.3499C19.0792 21.7875 18.8334 22.381 18.8334 22.9998V34.6665C18.8338 35.0757 18.9418 35.4776 19.1466 35.8318C19.3514 36.1861 19.6457 36.4802 20 36.6848C19.9583 37.7678 20.3484 38.823 21.0847 39.6183C21.8209 40.4136 22.8429 40.8839 23.9259 40.9257C25.0088 40.9674 26.064 40.5773 26.8594 39.8411C27.6547 39.1048 28.1249 38.0828 28.1667 36.9998H31.7834C31.9124 37.976 32.3917 38.872 33.1322 39.521C33.8726 40.1701 34.8237 40.5279 35.8084 40.5279C36.793 40.5279 37.7441 40.1701 38.4846 39.521C39.225 38.872 39.7044 37.976 39.8334 36.9998C40.4522 36.9998 41.0457 36.754 41.4833 36.3164C41.9209 35.8788 42.1667 35.2853 42.1667 34.6665V31.1665C42.1649 30.9537 42.1086 30.7448 42.0034 30.5598L38.8417 25.3332ZM34 26.4998H36.835L38.935 29.9998H34V26.4998ZM24.0834 38.1665C23.7373 38.1665 23.3989 38.0639 23.1111 37.8716C22.8233 37.6793 22.599 37.406 22.4666 37.0862C22.3341 36.7664 22.2995 36.4146 22.367 36.0751C22.4345 35.7356 22.6012 35.4238 22.8459 35.1791C23.0907 34.9343 23.4025 34.7677 23.742 34.7001C24.0814 34.6326 24.4333 34.6673 24.7531 34.7997C25.0728 34.9322 25.3462 35.1565 25.5384 35.4443C25.7307 35.732 25.8334 36.0704 25.8334 36.4165C25.8334 36.8806 25.649 37.3258 25.3208 37.6539C24.9926 37.9821 24.5475 38.1665 24.0834 38.1665ZM35.75 38.1665C35.4039 38.1665 35.0656 38.0639 34.7778 37.8716C34.49 37.6793 34.2657 37.406 34.1333 37.0862C34.0008 36.7664 33.9661 36.4146 34.0337 36.0751C34.1012 35.7356 34.2679 35.4238 34.5126 35.1791C34.7573 34.9343 35.0692 34.7677 35.4086 34.7001C35.7481 34.6326 36.1 34.6673 36.4197 34.7997C36.7395 34.9322 37.0128 35.1565 37.2051 35.4443C37.3974 35.732 37.5 36.0704 37.5 36.4165C37.5 36.8806 37.3157 37.3258 36.9875 37.6539C36.6593 37.9821 36.2142 38.1665 35.75 38.1665Z" fill="#00BCD3"/>
</svg>
