<svg width="61" height="60" viewBox="0 0 61 60" fill="none" xmlns="http://www.w3.org/2000/svg">
<rect x="0.5" width="60" height="60" rx="30" fill="#F75555" fill-opacity="0.08"/>
<g clip-path="url(#clip0_226_3368)">
<path d="M18.9862 24.3626C18.8301 24.0358 18.7793 23.6686 18.8408 23.3117C18.9022 22.9548 19.0729 22.6257 19.3292 22.3699L20.9788 20.7202C21.2347 20.4644 21.5636 20.2941 21.9203 20.2329C22.2769 20.1716 22.6438 20.2225 22.9703 20.3784L24.6912 18.6576C25.1287 18.2201 25.7221 17.9744 26.3408 17.9744C26.9596 17.9744 27.553 18.2201 27.9905 18.6576L31.291 21.9581C31.7284 22.3956 31.9742 22.989 31.9742 23.6077C31.9742 24.2265 31.7284 24.8199 31.291 25.2574L29.6402 26.9071L29.5818 26.8487L25.4577 30.9741L25.516 31.0324L23.8663 32.6821C23.6497 32.8989 23.3924 33.0708 23.1092 33.1881C22.8261 33.3054 22.5226 33.3658 22.2161 33.3658C21.9096 33.3658 21.6061 33.3054 21.323 33.1881C21.0398 33.0708 20.7825 32.8989 20.5658 32.6821L17.2665 29.3827C17.0497 29.1661 16.8778 28.9088 16.7605 28.6256C16.6431 28.3425 16.5828 28.039 16.5828 27.7325C16.5828 27.426 16.6431 27.1225 16.7605 26.8394C16.8778 26.5562 17.0497 26.2989 17.2665 26.0822L18.985 24.3626H18.9862ZM27.1062 32.6226L31.2315 28.4984L35.4152 32.6821L31.291 36.8074L27.1073 32.6237L27.1062 32.6226ZM32.9395 38.4559L37.0648 34.3317L39.1275 36.3944C39.6706 36.9421 39.9746 37.6827 39.9731 38.454C39.9715 39.2254 39.6644 39.9647 39.1191 40.5102C38.5737 41.0557 37.8345 41.3629 37.0632 41.3647C36.2919 41.3665 35.5512 41.0627 35.0033 40.5197L32.9407 38.4571L32.9395 38.4559ZM36.2412 20.3072L41.1902 25.2574L36.7113 29.7362C35.9962 30.4514 34.6767 30.2939 33.7655 29.3827L32.1158 27.7319C31.2047 26.8219 31.046 25.5024 31.7623 24.7861L36.24 20.3072H36.2412ZM37.8897 18.6576L38.2432 18.3041C38.9583 17.5877 40.2778 17.7464 41.189 18.6576L42.8387 20.3072C43.7498 21.2184 43.9085 22.5379 43.1922 23.2542L42.8387 23.6077L37.8908 18.6576H37.8897ZM23.0415 36.8074L25.5148 34.3317C25.6232 34.2234 25.7518 34.1374 25.8933 34.0787C26.0349 34.02 26.1866 33.9897 26.3399 33.9897C26.4931 33.9896 26.6448 34.0198 26.7864 34.0783C26.928 34.1369 27.0567 34.2228 27.1651 34.3312C27.2735 34.4395 27.3595 34.5681 27.4182 34.7096C27.4769 34.8512 27.5071 35.0029 27.5072 35.1562C27.5072 35.3094 27.4771 35.4612 27.4185 35.6028C27.3599 35.7444 27.274 35.873 27.1657 35.9814L24.6912 38.4583C24.9099 38.677 25.0328 38.9737 25.0328 39.2831C25.0328 39.5924 24.9099 39.8891 24.6912 40.1079L23.0415 41.7576C22.9332 41.8661 22.8045 41.9521 22.6629 42.0108C22.5212 42.0695 22.3694 42.0998 22.2161 42.0998C22.0628 42.0998 21.911 42.0695 21.7693 42.0108C21.6277 41.9521 21.499 41.8661 21.3907 41.7576L19.741 40.1079C19.5223 39.8891 19.3994 39.5924 19.3994 39.2831C19.3994 38.9737 19.5223 38.677 19.741 38.4583L21.3907 36.8086C21.499 36.7001 21.6277 36.6141 21.7693 36.5553C21.911 36.4966 22.0628 36.4664 22.2161 36.4664C22.3694 36.4664 22.5212 36.4966 22.6629 36.5553C22.8045 36.6141 22.9332 36.7001 23.0415 36.8086V36.8074Z" fill="#F54336"/>
</g>
<defs>
<clipPath id="clip0_226_3368">
<rect width="28" height="28" fill="white" transform="translate(16.5 16)"/>
</clipPath>
</defs>
</svg>
