<svg width="61" height="60" viewBox="0 0 61 60" fill="none" xmlns="http://www.w3.org/2000/svg">
<rect x="0.5" width="60" height="60" rx="30" fill="#F1F9F1"/>
<path d="M35.9774 19.7319H32.0849C31.3815 19.7341 31.4078 20.7825 32.0849 20.7763H35.9774V21.3122H32.0849C31.3854 21.3061 31.4112 22.3538 32.0849 22.3566H35.9774V22.9043H32.0849C31.3854 22.9043 31.4112 23.9515 32.0849 23.9487H35.9774V24.4706H32.0849C31.4 24.4757 31.4112 25.524 32.0849 25.5273H35.9774V26.0504H32.0849C31.4 26.0481 31.3972 27.0948 32.0849 27.0948H35.9774V27.6167H32.0849C31.4 27.6189 31.3972 28.6667 32.0849 28.6617H35.9774V29.1965H32.0849C31.4 29.1903 31.3972 30.2369 32.0849 30.2409H35.9774V30.7617H32.0849C31.4 30.7611 31.4112 31.81 32.0849 31.8066H35.9774V41.9757C35.9797 43.5252 38.3333 43.4972 38.3401 41.9757V18.1785C38.3333 17.4706 37.7521 16.5757 36.7956 16.5729H32.0849C31.3815 16.5735 31.4078 17.6218 32.0849 17.6173L35.9774 17.6302V18.151H32.0849C31.3826 18.1477 31.4089 19.1954 32.0849 19.196H35.9774V19.7319ZM31.8172 37.7605C31.8149 35.9517 29.9401 34.0063 27.7001 35.2663V28.3481L26.2513 16.9381C26.2211 16.6362 25.9652 16.5651 25.7933 16.5601C25.6157 16.5651 25.2601 16.6362 25.2215 16.9381L23.7801 28.3481V35.2663C21.5401 34.0063 19.7257 35.9641 19.7251 37.7465C19.7257 39.3325 20.9465 40.635 22.5985 40.6311C24.2628 40.635 25.4601 39.1751 25.4601 37.7465V30.5601H26.0201V37.7465C26.0201 39.3459 27.2588 40.5297 28.6353 40.6048C28.6123 41.4817 28.8985 42.7328 29.4372 43.2289C30.0689 43.8113 30.8209 43.0665 30.5124 42.4601C30.2145 41.8956 29.9221 41.5613 30.1596 40.3287C31.1519 39.8695 31.8149 38.9029 31.8172 37.7605ZM22.6623 39.1835C22.2847 39.1835 21.9225 39.0335 21.6555 38.7665C21.3885 38.4995 21.2385 38.1373 21.2385 37.7597C21.2385 37.3821 21.3885 37.0199 21.6555 36.7529C21.9225 36.4859 22.2847 36.3359 22.6623 36.3359C23.4385 36.3404 24.0707 36.9771 24.0763 37.7605C24.0747 38.1359 23.9255 38.4955 23.6609 38.7618C23.3963 39.0281 23.0376 39.1795 22.6623 39.1835ZM27.4621 37.7605C27.4634 37.3848 27.6125 37.0248 27.8772 36.7582C28.1419 36.4916 28.5009 36.3399 28.8766 36.3359C29.2524 36.3393 29.6117 36.4908 29.8765 36.7576C30.1412 37.0243 30.29 37.3847 30.2906 37.7605C30.29 38.1362 30.1412 38.4964 29.8764 38.7629C29.6116 39.0294 29.2523 39.1805 28.8766 39.1835C28.501 39.1801 28.1419 39.0288 27.8772 38.7625C27.6124 38.4961 27.4632 38.1361 27.4621 37.7605Z" fill="#309E2E"/>
</svg>
