<svg width="61" height="60" viewBox="0 0 61 60" fill="none" xmlns="http://www.w3.org/2000/svg">
<rect x="0.5" width="60" height="60" rx="30" fill="#4CAF50" fill-opacity="0.08"/>
<path d="M38.9934 21.7515L36.52 19.2782C35.61 18.3682 34.1284 18.3682 33.2184 19.2782L29.9167 22.5799L32.39 25.0532L34.8634 22.5799L38.9934 26.7099C39.649 26.0513 40.017 25.1599 40.017 24.2307C40.017 23.3015 39.649 22.4101 38.9934 21.7515ZM22.905 32.0649C23.5934 32.7532 24.7017 32.7532 25.3784 32.0649L28.26 29.1832L25.7867 26.6982L22.905 29.5799C22.2167 30.2682 22.2167 31.3765 22.905 32.0649Z" fill="#4AAF57"/>
<path d="M34.0467 25.0534L33.2183 25.8818L32.39 26.7101L28.68 23.0001C27.9917 22.3001 26.8833 22.3001 26.2067 22.9884C26.043 23.1501 25.9131 23.3427 25.8244 23.555C25.7357 23.7673 25.69 23.995 25.69 24.2251C25.69 24.4552 25.7357 24.6829 25.8244 24.8952C25.9131 25.1075 26.043 25.3001 26.2067 25.4618L29.9167 29.1718L29.0883 30.0001L21.6683 37.4201C20.7583 38.3301 20.7583 39.8118 21.6683 40.7218C22.5783 41.6318 24.06 41.6318 24.97 40.7218L35.6917 30.0001C35.7997 30.1081 35.9279 30.1938 36.069 30.2522C36.2102 30.3107 36.3614 30.3408 36.5142 30.3408C36.6669 30.3408 36.8182 30.3107 36.9593 30.2522C37.1004 30.1938 37.2287 30.1081 37.3367 30.0001C37.4447 29.8921 37.5304 29.7639 37.5888 29.6227C37.6473 29.4816 37.6774 29.3304 37.6774 29.1776C37.6774 29.0248 37.6473 28.8736 37.5888 28.7325C37.5304 28.5913 37.4447 28.4631 37.3367 28.3551L34.0467 25.0534Z" fill="#4AAF57"/>
</svg>
