<svg width="61" height="60" viewBox="0 0 61 60" fill="none" xmlns="http://www.w3.org/2000/svg">
<rect x="0.5" width="60" height="60" rx="30" fill="#335EF7" fill-opacity="0.08"/>
<path d="M40.2678 35.3789C40.6951 35.1838 41.0573 34.8699 41.3112 34.4748C41.5651 34.0796 41.7001 33.6198 41.7001 33.1501V31.4519C41.7002 30.6806 41.4455 29.9308 40.9756 29.3192C40.5057 28.7075 39.8469 28.2682 39.1016 28.0695L36.1714 27.2883L34.0126 23.4005C33.7095 22.8547 33.2658 22.4 32.7277 22.0834C32.1896 21.7668 31.5766 21.6 30.9522 21.6001H26.2188C25.4841 21.6001 24.768 21.8313 24.1719 22.261C23.5759 22.6906 23.1302 23.297 22.898 23.9941L21.7458 27.4493C21.0363 27.6734 20.4167 28.1178 19.9769 28.718C19.5371 29.3181 19.3 30.0428 19.3 30.7869V33.1501C19.3 34.1399 19.888 34.9925 20.7322 35.3789C20.8444 36.198 21.2428 36.951 21.857 37.5044C22.4712 38.0578 23.2614 38.376 24.0877 38.4025C24.914 38.429 25.7231 38.1621 26.3714 37.6492C27.0198 37.1362 27.4657 36.4103 27.63 35.6001H33.3701C33.5344 36.4103 33.9803 37.1362 34.6287 37.6492C35.277 38.1621 36.0861 38.429 36.9124 38.4025C37.7387 38.376 38.5289 38.0578 39.1431 37.5044C39.7573 36.951 40.1557 36.198 40.2678 35.3789ZM26.2188 23.0001H27.7V27.2001H23.304L24.2252 24.4365C24.3646 24.0181 24.6322 23.6541 24.99 23.3963C25.3479 23.1385 25.7778 22.9998 26.2188 23.0001ZM32.7876 24.0809L34.5223 27.2001H29.1V23.0001H30.9522C31.3268 23.0002 31.6944 23.1005 32.0171 23.2905C32.3399 23.4806 32.6059 23.7535 32.7876 24.0809ZM22.1 34.9001C22.1 34.6243 22.1544 34.3512 22.2599 34.0965C22.3654 33.8417 22.5201 33.6102 22.7151 33.4152C22.9101 33.2202 23.1416 33.0655 23.3964 32.96C23.6512 32.8544 23.9243 32.8001 24.2 32.8001C24.4758 32.8001 24.7489 32.8544 25.0037 32.96C25.2585 33.0655 25.49 33.2202 25.685 33.4152C25.88 33.6102 26.0347 33.8417 26.1402 34.0965C26.2457 34.3512 26.3 34.6243 26.3 34.9001C26.3 35.4571 26.0788 35.9912 25.685 36.385C25.2911 36.7788 24.757 37.0001 24.2 37.0001C23.6431 37.0001 23.109 36.7788 22.7151 36.385C22.3213 35.9912 22.1 35.4571 22.1 34.9001ZM34.7001 34.9001C34.7001 34.3431 34.9213 33.809 35.3151 33.4152C35.709 33.0213 36.2431 32.8001 36.8001 32.8001C37.357 32.8001 37.8911 33.0213 38.285 33.4152C38.6788 33.809 38.9001 34.3431 38.9001 34.9001C38.9 35.4571 38.6788 35.9912 38.285 36.385C37.8911 36.7788 37.357 37.0001 36.8001 37.0001C36.2431 37.0001 35.709 36.7788 35.3151 36.385C34.9213 35.9912 34.7001 35.4571 34.7001 34.9001Z" fill="#1A96F0"/>
</svg>
