<svg width="61" height="60" viewBox="0 0 61 60" fill="none" xmlns="http://www.w3.org/2000/svg">
<rect x="0.5" width="60" height="60" rx="30" fill="#FF9800" fill-opacity="0.08"/>
<path d="M20 20.7427H25.8334C26.1428 20.7427 26.4395 20.8656 26.6583 21.0844C26.8771 21.3032 27 21.5999 27 21.9093V38.2427C27 38.5521 26.8771 38.8488 26.6583 39.0676C26.4395 39.2864 26.1428 39.4093 25.8334 39.4093H20C19.6906 39.4093 19.3939 39.2864 19.1751 39.0676C18.9563 38.8488 18.8334 38.5521 18.8334 38.2427V21.9093C18.8334 21.5999 18.9563 21.3032 19.1751 21.0844C19.3939 20.8656 19.6906 20.7427 20 20.7427ZM20 33.576V35.9093H22.3334V33.576H20ZM30.5 24.2427H39.8334C40.4522 24.2427 41.0457 24.4885 41.4833 24.9261C41.9209 25.3637 42.1667 25.9572 42.1667 26.576V33.576C42.1667 34.1948 41.9209 34.7883 41.4833 35.2259C41.0457 35.6635 40.4522 35.9093 39.8334 35.9093H30.5C29.8812 35.9093 29.2877 35.6635 28.8501 35.2259C28.4125 34.7883 28.1667 34.1948 28.1667 33.576V26.576C28.1667 25.9572 28.4125 25.3637 28.8501 24.9261C29.2877 24.4885 29.8812 24.2427 30.5 24.2427ZM32.8334 37.076H37.5C37.8095 37.076 38.1062 37.1989 38.325 37.4177C38.5438 37.6365 38.6667 37.9333 38.6667 38.2427C38.6667 38.5521 38.5438 38.8488 38.325 39.0676C38.1062 39.2864 37.8095 39.4093 37.5 39.4093H32.8334C32.524 39.4093 32.2272 39.2864 32.0084 39.0676C31.7896 38.8488 31.6667 38.5521 31.6667 38.2427C31.6667 37.9333 31.7896 37.6365 32.0084 37.4177C32.2272 37.1989 32.524 37.076 32.8334 37.076Z" fill="#FF981F"/>
</svg>
