<svg width="61" height="60" viewBox="0 0 61 60" fill="none" xmlns="http://www.w3.org/2000/svg">
<rect x="0.5" width="60" height="60" rx="30" fill="#335EF7" fill-opacity="0.08"/>
<path d="M37.5 20.6668V19.5002C37.5 18.8585 36.975 18.3335 36.3333 18.3335H22.3333C21.6916 18.3335 21.1666 18.8585 21.1666 19.5002V24.1668C21.1666 24.8085 21.6916 25.3335 22.3333 25.3335H36.3333C36.975 25.3335 37.5 24.8085 37.5 24.1668V23.0002H38.6666V27.6668H28.1666C27.525 27.6668 27 28.1918 27 28.8335V40.5002C27 41.1418 27.525 41.6668 28.1666 41.6668H30.5C31.1416 41.6668 31.6666 41.1418 31.6666 40.5002V30.0002H39.8333C40.475 30.0002 41 29.4752 41 28.8335V21.8335C41 21.1918 40.475 20.6668 39.8333 20.6668H37.5Z" fill="#1A96F0"/>
</svg>
