<svg width="61" height="60" viewBox="0 0 61 60" fill="none" xmlns="http://www.w3.org/2000/svg">
<rect x="0.5" width="60" height="60" rx="30" fill="#FF9800" fill-opacity="0.08"/>
<path d="M41.8283 39.6718L40.1717 41.3285C39.9531 41.5458 39.6574 41.6678 39.3492 41.6678C39.0409 41.6678 38.7452 41.5458 38.5267 41.3285L24.6667 27.4918C24.2873 27.6017 23.8949 27.6606 23.5 27.6668C22.7572 27.6663 22.0252 27.4885 21.365 27.1481C20.7047 26.8077 20.1353 26.3147 19.704 25.7099C19.2726 25.1051 18.9919 24.4061 18.8851 23.6711C18.7783 22.936 18.8486 22.186 19.09 21.4835L22.0533 24.4468L22.6717 23.8285L24.3283 22.1718L24.9467 21.5535L21.9833 18.5902C22.6858 18.3487 23.4358 18.2785 24.1709 18.3853C24.906 18.4921 25.605 18.7728 26.2097 19.2041C26.8145 19.6355 27.3075 20.2049 27.6479 20.8652C27.9883 21.5254 28.1661 22.2573 28.1667 23.0002C28.1604 23.3951 28.1016 23.7874 27.9917 24.1668L41.8283 38.0268C42.0456 38.2454 42.1676 38.5411 42.1676 38.8493C42.1676 39.1575 42.0456 39.4532 41.8283 39.6718ZM19.1717 38.0268C18.9544 38.2454 18.8324 38.5411 18.8324 38.8493C18.8324 39.1575 18.9544 39.4532 19.1717 39.6718L20.8283 41.3285C21.0469 41.5458 21.3426 41.6678 21.6508 41.6678C21.959 41.6678 22.2547 41.5458 22.4733 41.3285L28.855 34.9585L25.5533 31.6568L19.1717 38.0268ZM39.8333 18.3335L35.1667 20.6668V23.0002L32.635 25.5318L34.9683 27.8652L37.5 25.3335H39.8333L42.1667 20.6668L39.8333 18.3335Z" fill="#FF981F"/>
</svg>
