<svg width="42" height="37" viewBox="0 0 42 37" fill="none" xmlns="http://www.w3.org/2000/svg">
<path d="M5.93945 33.9208C5.93945 32.4457 7.13519 31.25 8.61021 31.25H33.0922C34.5672 31.25 35.763 32.4457 35.763 33.9208V36.2354H5.93945V33.9208Z" fill="#4C5564"/>
<path d="M8.60742 19.5881C8.60742 13.1472 13.8288 7.92578 20.2698 7.92578H21.4271C27.868 7.92578 33.0894 13.1472 33.0894 19.5881V31.2504H8.60742V19.5881Z" fill="#F44F4E"/>
<path fill-rule="evenodd" clip-rule="evenodd" d="M5.77554 16.7124L0.940051 15.6562L1.24401 14.2646L6.0795 15.3208L5.77554 16.7124Z" fill="#FCCB2D"/>
<path fill-rule="evenodd" clip-rule="evenodd" d="M20.1218 5.03022L20.1949 0.0812654L21.6191 0.102314L21.546 5.05127L20.1218 5.03022Z" fill="#FCCB2D"/>
<path fill-rule="evenodd" clip-rule="evenodd" d="M30.9336 7.51768L34.0545 3.67608L35.16 4.57422L32.0392 8.41582L30.9336 7.51768Z" fill="#FCCB2D"/>
<path fill-rule="evenodd" clip-rule="evenodd" d="M10.7656 7.51768L7.64476 3.67608L6.5392 4.57422L9.66004 8.41582L10.7656 7.51768Z" fill="#FCCB2D"/>
<path fill-rule="evenodd" clip-rule="evenodd" d="M35.8748 16.7124L40.7103 15.6562L40.4064 14.2646L35.5709 15.3208L35.8748 16.7124Z" fill="#FCCB2D"/>
<path fill-rule="evenodd" clip-rule="evenodd" d="M36.4069 24.9547L41.1438 26.4143L41.5633 25.0531L36.8263 23.5935L36.4069 24.9547Z" fill="#FCCB2D"/>
<path fill-rule="evenodd" clip-rule="evenodd" d="M5.27474 24.9547L0.537809 26.4143L0.118368 25.0531L4.85529 23.5935L5.27474 24.9547Z" fill="#FCCB2D"/>
<path fill-rule="evenodd" clip-rule="evenodd" d="M15.1053 12.1928C15.1056 12.1927 15.1059 12.1926 15.3848 12.8479C15.6637 13.5032 15.664 13.5031 15.6643 13.503L15.6647 13.5028L15.6655 13.5025L15.6662 13.5022C15.6663 13.5021 15.6656 13.5024 15.6643 13.503C15.6617 13.5042 15.6562 13.5066 15.6481 13.5103C15.632 13.5178 15.6054 13.5304 15.5698 13.5482C15.4986 13.584 15.3919 13.6408 15.2608 13.7199C14.9976 13.8787 14.6422 14.1242 14.2804 14.4663C13.5595 15.1479 12.8275 16.1967 12.7162 17.7192L11.2956 17.6153C11.4395 15.6477 12.397 14.2868 13.3017 13.4313C13.7527 13.0049 14.1942 12.6999 14.5247 12.5004C14.6905 12.4003 14.8298 12.326 14.9304 12.2754C14.9807 12.2502 15.0215 12.2308 15.0512 12.217C15.0661 12.2102 15.0782 12.2047 15.0874 12.2007C15.092 12.1986 15.0958 12.1969 15.0989 12.1956L15.103 12.1938L15.1046 12.1931L15.1053 12.1928Z" fill="#FCCACA"/>
<path fill-rule="evenodd" clip-rule="evenodd" d="M17.377 21.502H24.2764V22.9264H21.5611V31.2502H20.1367V22.9264H17.377V21.502Z" fill="#F78483"/>
</svg>
