<svg width="390" height="270" viewBox="0 0 390 270" fill="none" xmlns="http://www.w3.org/2000/svg">
<mask id="mask0_85_21482" style="mask-type:alpha" maskUnits="userSpaceOnUse" x="0" y="-77" width="390" height="347">
<rect y="-77" width="390" height="347" rx="32" fill="#111828"/>
</mask>
<g mask="url(#mask0_85_21482)">
<path d="M167.998 298.459C153.608 262.476 172.478 212.248 207.032 180.029C241.586 147.81 291.824 133.601 330.797 145.001C369.77 156.402 397.645 193.246 421.016 225.586C444.054 257.925 462.921 285.762 463.312 313.726C463.704 341.691 445.62 370.116 422.52 387.545C399.254 405.139 371.139 411.905 345.831 408.523C320.857 405.141 299.024 391.946 264.365 374.23C229.707 356.513 182.222 334.609 167.998 298.459Z" fill="#B2E2AA"/>
<path fill-rule="evenodd" clip-rule="evenodd" d="M260.814 81.9081C260.814 87.5227 264.412 92.0741 268.85 92.0741C273.287 92.0741 276.885 87.5227 276.885 81.9081C276.885 76.2935 273.287 71.7422 268.85 71.7422C264.412 71.7422 260.814 76.2935 260.814 81.9081Z" fill="#111828"/>
<path d="M279.83 122.182L280.166 110.506C280.166 110.506 266.059 111.635 263.04 110.059C263.04 110.059 259.352 90.9459 263.751 80.3617L263.84 79.9496L293.611 76.4473L295.28 93.629C296.283 90.654 304.56 87.2807 306.723 91.5408C311.412 100.772 294.648 106.987 294.648 106.987L296.35 122.322" fill="#C4947B"/>
<path opacity="0.398926" fill-rule="evenodd" clip-rule="evenodd" d="M280.167 110.505L289.68 108.453L280.212 114.885L280.167 110.505Z" fill="#111828"/>
<path opacity="0.39" fill-rule="evenodd" clip-rule="evenodd" d="M272.562 93.4102L269.275 101.493L273.215 101.543L272.562 93.4102Z" fill="#111828"/>
<path fill-rule="evenodd" clip-rule="evenodd" d="M276.066 93.7209C275.87 94.8094 276.589 95.8513 277.671 96.048C278.754 96.245 279.79 95.522 279.985 94.4339C280.181 93.3454 279.463 92.3035 278.38 92.1065C277.298 91.9098 276.262 92.6324 276.066 93.7209Z" fill="#202938"/>
<path fill-rule="evenodd" clip-rule="evenodd" d="M265.021 93.7209C264.826 94.8094 265.544 95.8513 266.626 96.048C267.709 96.245 268.745 95.522 268.94 94.4339C269.136 93.3454 268.418 92.3035 267.335 92.1065C266.253 91.9098 265.217 92.6324 265.021 93.7209Z" fill="#202938"/>
<path d="M293.069 96.5607C295.892 91.7019 299.976 90.2201 301.809 89.7856C302.54 87.6603 303.097 85.1954 303.489 82.574C304.539 75.5579 299.467 69.1567 295.37 67.3186C291.223 65.4585 284.072 62.8807 273.605 66.3799C266.569 68.7339 262.071 63.098 257.93 65.5051C250.854 69.6194 257.436 87.632 275.377 83.0561C288.211 79.7828 288.541 80.6039 288.651 82.9832C289.007 90.6741 290.199 95.1986 293.069 96.5607Z" fill="#111828"/>
<path fill-rule="evenodd" clip-rule="evenodd" d="M278.033 101.844C278.033 101.844 276.768 104.155 274.035 104.1L278.033 101.844Z" fill="#FCCB2D"/>
<path d="M278.033 101.844C278.033 101.844 276.768 104.155 274.035 104.1" stroke="#111828" stroke-width="2"/>
<path fill-rule="evenodd" clip-rule="evenodd" d="M273.517 93.8183C273.517 96.3487 275.557 98.3998 278.073 98.3998C280.589 98.3998 282.629 96.3487 282.629 93.8183C282.629 91.2878 280.589 89.2363 278.073 89.2363C275.557 89.2363 273.517 91.2878 273.517 93.8183Z" stroke="#111828"/>
<path fill-rule="evenodd" clip-rule="evenodd" d="M262.044 93.8183C262.044 96.3487 264.084 98.3998 266.6 98.3998C269.116 98.3998 271.156 96.3487 271.156 93.8183C271.156 91.2878 269.116 89.2363 266.6 89.2363C264.084 89.2363 262.044 91.2878 262.044 93.8183Z" stroke="#111828"/>
<path d="M271.528 94.0294H273.498" stroke="#111828"/>
<path d="M282.628 93.8184H293.883" stroke="#111828"/>
<path d="M266.241 371.891L266.524 380.778H282.742L282.458 371.864C284.275 371.132 285.573 369.372 285.617 367.292L288.228 234.176L316.435 368.568C316.832 370.459 318.229 371.927 320.002 372.468L321.062 380.778H338.067L336.604 371.603C338.02 370.501 338.84 368.688 338.558 366.752L312.589 188.632L289.121 188.632L289.122 188.564H260.698L262.402 367.043C262.426 369.39 264.052 371.354 266.241 371.891Z" fill="#111828"/>
<path opacity="0.197824" fill-rule="evenodd" clip-rule="evenodd" d="M288.371 236.286L283.394 214.131L287.139 281.3L288.371 236.286Z" fill="#111828"/>
<path d="M306.516 188.801L303.792 189.247L333.497 370.763L336.229 370.305L306.516 188.801Z" fill="#FCCB2D"/>
<path fill-rule="evenodd" clip-rule="evenodd" d="M221.658 127.576L221.853 124.196C221.853 124.196 221.849 121.845 221.544 119.306C221.468 118.669 221.3 118.003 221.121 117.292C220.586 115.168 219.95 112.642 221.341 109.285C223.199 104.807 218.758 107.898 217.774 110.028C217.394 110.851 217.284 112.096 217.174 113.33C217.047 114.757 216.921 116.171 216.381 116.904C215.53 116.441 214.964 115.837 214.964 115.837L205.391 103.448C205.082 103.032 204.513 102.907 204.056 103.152L203.541 103.433C202.998 103.729 202.827 104.422 203.174 104.928C203.838 105.9 204.997 107.541 206.209 109.255C208.408 112.366 210.78 115.722 210.679 115.775L210.425 116.083L199.181 104.254C198.83 103.861 198.241 103.791 197.808 104.091L197.132 104.558C196.641 104.897 196.535 105.574 196.902 106.041C198.101 107.586 201.069 110.931 203.54 113.716L203.54 113.716L203.54 113.717C205.678 116.126 207.444 118.116 207.369 118.158L207.034 118.481L196.566 109.257C196.196 108.845 195.563 108.798 195.134 109.144L194.623 109.561C194.174 109.923 194.108 110.581 194.475 111.025L204.36 120.299L204.075 120.747L195.493 114.731C195.099 114.381 194.506 114.381 194.108 114.728L193.87 114.942C193.448 115.315 193.401 115.958 193.768 116.39C194.352 117.08 195.509 117.986 196.887 119.066C198.473 120.309 200.354 121.782 201.995 123.422C202.899 124.325 203.628 125.21 204.367 126.107L204.367 126.107C205.573 127.573 206.805 129.069 208.868 130.726C210.099 131.718 211.213 132.296 212.273 132.845C212.423 132.923 212.572 133 212.72 133.077L221.658 127.576ZM298.82 119.822C298.82 119.822 292.205 119.809 287.432 119.793C282.659 119.777 276.656 121.79 276.656 121.79C276.656 121.79 273.533 128.828 284.383 128.191C295.232 127.553 298.82 119.822 298.82 119.822ZM334.996 148.302C334.996 148.302 345.584 164.242 345.344 173.107C345.06 183.56 311.752 209.242 311.752 209.242L303.12 202.19L324.089 172.868L316.463 156.575L334.996 148.302Z" fill="#C4947B"/>
<path d="M305.627 189.408L300.471 196.347L316.002 209.925C316.002 209.925 344.503 188.974 345.383 172.548C345.944 162.085 336.817 147.15 336.817 147.15C336.817 147.15 325.362 128.788 312.119 122.591C309.402 121.32 302.813 120.259 298.819 119.821C297.595 119.687 298.327 120.166 297.907 120.975C297.467 121.821 296.131 123.075 295.206 124.011C293.282 125.962 289.489 127.438 287.452 127.74C285.899 127.971 282.898 128.328 281.455 128.134C280.012 127.939 278.442 127.286 278.023 126.897C277.604 126.509 276.98 126.023 276.656 125.275C276.332 124.527 276.349 124.741 276.349 124.051C276.349 123.361 276.384 123.463 276.452 123.134C276.519 122.806 276.519 122.608 276.559 122.438C276.735 121.687 276.656 121.789 276.656 121.789C268.839 124.157 264.879 125.034 262.031 128.478L240.268 143.796L225.377 124.309L206.164 137.247C206.164 137.247 223.176 169.033 235.505 172.547C245.436 175.378 255.497 166.575 259.034 163.043L254.831 184.442C254.158 188.136 257.383 189.534 260.258 189.403L305.627 189.408Z" fill="#FCCB2D"/>
<path opacity="0.201242" fill-rule="evenodd" clip-rule="evenodd" d="M259.1 163.058L261.701 152.748L254.678 166.837L259.1 163.058Z" fill="#111828"/>
<path opacity="0.200591" d="M307.557 186.924L319.686 169.673L305.035 147.391" stroke="#111828" stroke-width="2"/>
</g>
</svg>
