<svg width="216" height="361" viewBox="0 0 216 361" fill="none" xmlns="http://www.w3.org/2000/svg">
<path fill-rule="evenodd" clip-rule="evenodd" d="M100.492 42.7615C100.492 47.9999 103.845 52.2463 107.981 52.2463C112.117 52.2463 115.471 47.9999 115.471 42.7615C115.471 37.523 112.117 33.2766 107.981 33.2766C103.845 33.2766 100.492 37.523 100.492 42.7615Z" fill="#111828"/>
<path d="M118.215 80.3358L118.528 69.4419C118.528 69.4419 105.379 70.496 102.566 69.0249C102.566 69.0249 99.1278 51.1925 103.228 41.3175L103.311 40.933L131.06 37.6653L132.616 53.6959C133.551 50.9202 141.265 47.7729 143.281 51.7476C147.651 60.3602 132.026 66.1593 132.026 66.1593L133.613 80.4665" fill="#C4947B"/>
<path opacity="0.398926" fill-rule="evenodd" clip-rule="evenodd" d="M118.528 69.4419L127.395 67.5278L118.57 73.529L118.528 69.4419Z" fill="#111828"/>
<path opacity="0.39" fill-rule="evenodd" clip-rule="evenodd" d="M111.441 53.4922L108.377 61.0335L112.049 61.0806L111.441 53.4922Z" fill="#111828"/>
<path fill-rule="evenodd" clip-rule="evenodd" d="M114.708 53.7825C114.525 54.798 115.195 55.7701 116.204 55.9536C117.213 56.1374 118.178 55.4629 118.361 54.4477C118.543 53.4321 117.873 52.46 116.865 52.2762C115.856 52.0927 114.89 52.7669 114.708 53.7825Z" fill="#202938"/>
<path fill-rule="evenodd" clip-rule="evenodd" d="M104.411 53.7825C104.228 54.798 104.898 55.7701 105.907 55.9536C106.916 56.1374 107.881 55.4629 108.064 54.4477C108.246 53.4321 107.577 52.46 106.568 52.2762C105.559 52.0927 104.593 52.7669 104.411 53.7825Z" fill="#202938"/>
<path d="M130.556 56.432C133.187 51.8988 136.993 50.5163 138.702 50.1108C139.383 48.1279 139.903 45.8282 140.268 43.3824C141.247 36.8364 136.519 30.8641 132.701 29.1491C128.835 27.4136 122.17 25.0086 112.414 28.2732C105.855 30.4696 101.663 25.2113 97.8036 27.4571C91.2084 31.2957 97.3428 48.1016 114.066 43.8323C126.028 40.7783 126.336 41.5443 126.438 43.7643C126.77 50.9398 127.881 55.1612 130.556 56.432Z" fill="black"/>
<path fill-rule="evenodd" clip-rule="evenodd" d="M116.541 61.3608C116.541 61.3608 115.362 63.5174 112.814 63.4663L116.541 61.3608Z" fill="white"/>
<path d="M116.541 61.3608C116.541 61.3608 115.362 63.5174 112.814 63.4663" stroke="#384152" stroke-width="2"/>
<path fill-rule="evenodd" clip-rule="evenodd" d="M112.329 53.8726C112.329 56.2335 114.23 58.1472 116.576 58.1472C118.921 58.1472 120.822 56.2335 120.822 53.8726C120.822 51.5117 118.921 49.5977 116.576 49.5977C114.23 49.5977 112.329 51.5117 112.329 53.8726Z" stroke="#384152" stroke-width="1.5"/>
<path fill-rule="evenodd" clip-rule="evenodd" d="M101.638 53.8726C101.638 56.2335 103.539 58.1472 105.884 58.1472C108.229 58.1472 110.131 56.2335 110.131 53.8726C110.131 51.5117 108.229 49.5977 105.884 49.5977C103.539 49.5977 101.638 51.5117 101.638 53.8726Z" stroke="#384152" stroke-width="1.5"/>
<path d="M110.476 54.0709L112.312 54.0709" stroke="#384152" stroke-width="1.5"/>
<path d="M120.822 53.8727L131.312 53.8727" stroke="#384152" stroke-width="1.5"/>
<path fill-rule="evenodd" clip-rule="evenodd" d="M107.296 325.178L107.193 316.244L118.653 310.442L120.316 335.982L80.6122 335.982C87.3678 328.333 107.296 325.178 107.296 325.178ZM158.155 325.527L158.052 315.492L165.523 321.606L171.535 324.971L173.52 335.982L146.345 335.982C149.762 326.628 158.155 325.527 158.155 325.527Z" fill="#4C5564"/>
<path fill-rule="evenodd" clip-rule="evenodd" d="M158.051 315.492L169.511 312.03L171.535 324.971L158.155 325.526L158.051 315.492ZM107.193 316.244L118.653 312.783L119.577 324.623L107.296 325.178L107.193 316.244Z" fill="#C4947B"/>
<path d="M105.551 313.315L105.815 321.606L120.932 321.606L120.667 313.29C122.36 312.607 123.57 310.965 123.611 309.024L126.045 184.827L152.336 310.215C152.706 311.979 154.008 313.348 155.661 313.853L156.649 321.606L172.499 321.606L171.135 313.046C172.454 312.018 173.219 310.327 172.956 308.52L148.751 142.334L126.877 142.334L126.878 142.271L100.385 142.271L101.973 308.792C101.995 310.982 103.511 312.814 105.551 313.315Z" fill="#FCCB2D"/>
<path opacity="0.197824" fill-rule="evenodd" clip-rule="evenodd" d="M126.18 186.795L121.541 166.124L125.031 228.793L126.18 186.795Z" fill="#111828"/>
<path d="M143.091 142.491L140.552 142.907L168.239 312.262L170.785 311.835L143.091 142.491Z" fill="white"/>
<path fill-rule="evenodd" clip-rule="evenodd" d="M63.9927 85.3695L64.1746 82.2164C64.1746 82.2164 64.171 80.0223 63.8872 77.6539C63.8161 77.0597 63.6597 76.4382 63.4927 75.7746C62.9941 73.7932 62.4009 71.4357 63.6981 68.3035C65.4296 64.126 61.2899 67.0103 60.3732 68.9974C60.019 69.7654 59.9159 70.9262 59.8135 72.0776C59.6952 73.4095 59.5779 74.7287 59.0746 75.4125C58.2815 74.9803 57.7541 74.4172 57.7541 74.4172L48.8308 62.8583C48.5434 62.4696 48.0123 62.3533 47.5867 62.5822L47.1065 62.8437C46.6009 63.1198 46.4408 63.7664 46.7646 64.2387C47.3836 65.1459 48.4642 66.6763 49.5936 68.276L49.5937 68.2762C51.6432 71.179 53.8537 74.3099 53.7599 74.3591L53.5234 74.6461L43.0432 63.6102C42.7158 63.2433 42.1665 63.1779 41.7627 63.4576L41.1334 63.8936C40.675 64.2096 40.5768 64.8417 40.9188 65.2776C42.0362 66.7186 44.8021 69.8392 47.105 72.4375L47.1059 72.4385C49.0986 74.6867 50.7443 76.5435 50.6751 76.5822L50.3623 76.8837L40.6059 68.2781C40.2604 67.8931 39.6711 67.8495 39.2709 68.1728L38.7944 68.5614C38.376 68.8993 38.3142 69.5132 38.6561 69.9273L47.8704 78.5802L47.6049 78.9979L39.6056 73.3855C39.2382 73.0586 38.6852 73.0586 38.3142 73.3819L38.0923 73.5817C37.6994 73.9304 37.6558 74.5298 37.9977 74.933C38.5423 75.5765 39.62 76.4218 40.9048 77.4294C42.3833 78.5891 44.1361 79.9638 45.666 81.4935C46.5086 82.3363 47.188 83.1623 47.8764 83.9992C49.001 85.3663 50.1495 86.7625 52.072 88.3083C53.2193 89.2344 54.2578 89.773 55.246 90.2855L55.2471 90.2861C55.3865 90.3583 55.5248 90.4301 55.6624 90.5024L63.9927 85.3695ZM135.914 78.1352C135.914 78.1352 129.749 78.1232 125.299 78.1083C120.851 78.093 115.256 79.9715 115.256 79.9715C115.256 79.9715 112.345 86.5378 122.457 85.9431C132.57 85.3477 135.914 78.1352 135.914 78.1352ZM169.632 104.707C169.632 104.707 179.501 119.579 179.277 127.85C179.013 137.602 147.967 161.565 147.967 161.565L139.922 154.984L159.466 127.627L152.359 112.426L169.632 104.707Z" fill="#C4947B"/>
<path d="M142.259 143.06L137.453 149.534L151.929 162.202C151.929 162.202 178.494 142.655 179.315 127.329C179.837 117.567 171.33 103.633 171.33 103.633C171.33 103.633 160.653 86.5014 148.31 80.7197C145.777 79.5332 139.636 78.5435 135.913 78.1352C134.772 78.01 135.455 78.4564 135.063 79.2118C134.654 80.0011 133.408 81.1706 132.546 82.0447C130.752 83.8641 127.217 85.2417 125.318 85.5238C123.871 85.7387 121.074 86.0721 119.729 85.8907C118.383 85.7092 116.921 85.0995 116.53 84.7373C116.139 84.375 115.557 83.9218 115.256 83.2237C114.954 82.5255 114.969 82.7255 114.969 82.0815C114.969 81.4374 115.002 81.5327 115.065 81.2262C115.128 80.9197 115.128 80.7354 115.165 80.577C115.329 79.8762 115.256 79.9714 115.256 79.9714C107.97 82.1807 104.279 82.9983 101.624 86.2122L81.3392 100.504L67.4599 82.322L49.5515 94.3931C49.5515 94.3931 65.4079 124.05 76.8994 127.329C86.1562 129.97 95.5338 121.756 98.831 118.462L94.9136 138.426C94.2857 141.873 97.2922 143.178 99.971 143.056L142.259 143.06Z" fill="#3EB62B"/>
<path opacity="0.201242" fill-rule="evenodd" clip-rule="evenodd" d="M98.8919 118.474L101.316 108.855L94.77 122L98.8919 118.474Z" fill="#111828"/>
<path opacity="0.200591" d="M144.056 140.742L155.361 124.646L141.706 103.856" stroke="#111828"/>
</svg>
