<svg width="266" height="423" viewBox="0 0 266 423" fill="none" xmlns="http://www.w3.org/2000/svg">
<path d="M89.1952 38.5964C71.952 41.0019 79.1762 60.8618 84.0227 71.5847C89.7114 84.1714 84.7283 92.6103 84.7283 92.6103L58.0742 83.147C67.8567 70.7062 57.0531 63.7777 59.7127 48.9444C62.0984 35.6384 75.0482 29.635 83.2302 29.918C87.3143 30.0593 90.6567 31.1111 93.3026 32.4597C93.4032 32.511 93.4992 32.5658 93.5906 32.6238C98.4243 27.6601 105.115 24.6934 112.848 24.6934C128.75 24.6934 143.038 37.2402 143.038 53.9C143.038 70.5598 130.147 84.0652 114.244 84.0652C98.3415 84.0652 85.4498 70.5598 85.4498 53.9C85.4498 48.2062 86.7926 42.9927 89.1952 38.5964Z" fill="#111828"/>
<path fill-rule="evenodd" clip-rule="evenodd" d="M117.057 84.8619C117.057 84.8619 111.143 85.0366 108.623 83.6602L116.742 88.7577L117.057 84.8619Z" fill="#C4947B"/>
<path d="M139.1 62.5751C138.214 69.4362 135.914 79.1039 130.234 82.8803C127.221 84.8833 121.733 85.1302 117.055 84.8604L115.985 98.1449L100.72 91.8616C100.72 91.8616 102.188 77.2007 102.825 71.5805C99.756 68.8001 94.5287 67.5105 94.5195 62.7867C94.5195 61.1495 95.4753 58.3189 99.0056 58.3097C103.743 58.3051 103.066 63.9848 103.066 63.9848C103.654 64.2127 104.242 64.1996 104.829 63.9902C109.52 63.7953 122.568 61.8308 131.439 46.6719C132.475 51.7746 134.627 58.1348 139.1 62.5751Z" fill="#C4947B"/>
<path opacity="0.39" fill-rule="evenodd" clip-rule="evenodd" d="M129.911 63.9727L133.295 72.1766L129.369 72.0979L129.911 63.9727Z" fill="#111828"/>
<path fill-rule="evenodd" clip-rule="evenodd" d="M126.309 64.3271C126.225 65.9661 125.261 67.2428 124.156 67.1793C123.052 67.1157 122.224 65.7356 122.309 64.0966C122.393 62.4577 123.357 61.1809 124.462 61.2445C125.566 61.308 126.394 62.6886 126.309 64.3271Z" fill="#111828"/>
<path fill-rule="evenodd" clip-rule="evenodd" d="M136.683 64.0658C136.598 65.7048 135.634 66.9816 134.53 66.918C133.425 66.8544 132.598 65.4743 132.682 63.8354C132.766 62.1964 133.73 60.9192 134.835 60.9827C135.939 61.0463 136.767 62.4269 136.683 64.0658Z" fill="#111828"/>
<path d="M128.407 76.0264C128.407 76.0264 125.849 76.8523 123.285 74.002" stroke="#111828" stroke-width="2"/>
<path opacity="0.402786" fill-rule="evenodd" clip-rule="evenodd" d="M117.047 84.8624C117.047 84.8624 111.134 85.0371 108.613 83.6602L116.733 88.7577L117.047 84.8624Z" fill="black"/>
<path fill-rule="evenodd" clip-rule="evenodd" d="M93.2888 159.454L90.1289 159.408C90.1289 159.408 90.1335 159.358 90.1376 159.253C91.226 159.33 92.2782 159.394 93.2888 159.454Z" fill="#C83820"/>
<path d="M157.676 193.696L147.244 195.004L130.444 168.728L129.83 159.994L104.236 159.614L93.3111 159.454H93.2882C92.2776 159.394 91.2253 159.331 90.1374 159.253C76.3773 158.292 57.3126 155.617 56.0047 148.209C53.6313 134.792 71.5848 108.753 73.7067 105.735C73.8393 105.548 73.9075 105.447 73.9075 105.447C76.9165 101.149 79.9442 97.8057 82.7703 96.0269C88.2671 92.5651 93.4208 91.8055 98.3185 91.8197L99.6305 82.3125L119.61 85.0695L118.522 92.9721C124.389 93.5346 128.381 94.6819 132.117 98.1117C144.112 109.124 144.995 150.368 144.995 150.368L157.676 193.696Z" fill="#FCCB2D"/>
<path fill-rule="evenodd" clip-rule="evenodd" d="M104.235 159.614V159.797C104.235 159.797 99.6533 159.806 93.3105 159.454L104.235 159.614Z" fill="#C83820"/>
<path opacity="0.201149" d="M129.463 159.888C130.93 141.257 141.084 137.317 133.767 116.422" stroke="black"/>
<path fill-rule="evenodd" clip-rule="evenodd" d="M146.737 182.937L108.581 178.54C107.332 178.395 106.509 177.167 106.851 175.957L121.928 122.692C122.2 121.729 123.13 121.106 124.125 121.221L162.281 125.618C163.53 125.762 164.353 126.991 164.01 128.201L148.934 181.466C148.662 182.429 147.731 183.052 146.737 182.937Z" fill="#384152"/>
<path d="M112.855 163.032C112.928 163.052 113.001 163.072 113.076 163.093C115.726 163.816 118.436 164.254 122.205 163.757C124.629 163.44 126.713 163.026 126.689 162.639C126.623 161.662 125.446 161.443 125.446 161.443L123.182 161.552L121.005 161.423C121.005 161.423 131.009 159.531 131.009 159.237C130.978 158.205 129.336 157.787 129.336 157.787C129.336 157.787 132.776 157.24 132.737 156.692C132.643 155.301 131.107 155.195 131.107 155.195C131.107 155.195 131.533 154.827 131.49 154.487C131.322 153.115 128.875 152.888 127.71 152.72C127.71 152.72 123.745 152.666 122.564 152.372C119.459 151.597 117.611 150.904 116.452 150.326L124.199 122.953C124.472 121.991 125.402 121.368 126.396 121.482L164.552 125.881C165.801 126.024 166.624 127.253 166.281 128.463L151.206 181.728C150.933 182.691 150.003 183.313 149.009 183.199L110.853 178.801C109.604 178.657 108.78 177.428 109.123 176.218L112.855 163.032Z" fill="#6B7380"/>
<path fill-rule="evenodd" clip-rule="evenodd" d="M131.011 159.237C130.98 158.205 129.338 157.787 129.338 157.787C129.338 157.787 132.778 157.239 132.739 156.692C132.645 155.3 131.109 155.195 131.109 155.195C131.109 155.195 131.535 154.827 131.492 154.487C131.336 153.216 129.225 152.927 127.989 152.758C127.89 152.745 127.797 152.732 127.711 152.72C127.711 152.72 123.747 152.665 122.566 152.372C116.678 150.901 115.31 149.729 114.587 149.068C114.564 149.048 114.543 149.028 114.522 149.009C114.462 148.954 114.407 148.903 114.352 148.857C114.392 148.813 114.438 148.74 114.486 148.663C114.554 148.555 114.626 148.44 114.693 148.392L115.699 144.705C114.962 144.785 114.242 144.81 113.529 144.834C112.527 144.869 111.539 144.903 110.536 145.088C107.803 145.592 106.185 146.226 106.185 146.226L102.697 147.418L100.168 156.778C101.126 157.63 103.42 159.311 104.977 160.159C107.982 161.796 109.306 162.129 111.337 162.64C111.678 162.726 112.04 162.817 112.432 162.92C112.477 162.932 112.522 162.944 112.567 162.955C112.732 162.999 112.902 163.043 113.077 163.092C115.728 163.816 118.437 164.253 122.206 163.757C124.63 163.44 126.714 163.025 126.691 162.638C126.624 161.661 125.447 161.442 125.447 161.442L123.184 161.551L121.006 161.423C121.006 161.423 131.011 159.53 131.011 159.237ZM163.239 200.885C162.814 200.049 159.893 196.541 157.495 193.719L147.511 194.97C146.368 201.713 151.118 211.35 151.118 211.35C151.118 211.35 148.647 209.843 148.156 211.161C147.936 211.748 147.441 216.434 156.696 216.75C157.679 216.783 160.043 214.785 160.043 214.785C160.043 214.785 158.319 218.076 160.958 218.722C160.958 218.722 165.212 212.349 165.277 210.931C165.342 209.513 163.977 202.335 163.239 200.885Z" fill="#C4947B"/>
<path opacity="0.148065" d="M153.006 198.488C153.006 198.488 154.305 203.395 158.762 204.923C160.321 205.458 159.932 211.769 163.751 211.014" stroke="black" stroke-width="3"/>
<path fill-rule="evenodd" clip-rule="evenodd" d="M128.077 126.444C127.776 127.387 127.135 128.026 126.644 127.87C126.154 127.714 126 126.822 126.3 125.878C126.6 124.934 127.242 124.295 127.732 124.451C128.223 124.608 128.377 125.499 128.077 126.444Z" fill="#384152"/>
<path opacity="0.200498" d="M89.6424 120.115L80.0117 136.062L103.957 145.537" stroke="black"/>
<path fill-rule="evenodd" clip-rule="evenodd" d="M231.87 245.125L227.155 235.846L215.808 237.555L231.242 262.856L265.096 240.388C253.444 237.788 231.87 245.125 231.87 245.125ZM178.856 294.033L180.036 283.731L169.667 278.917L168.135 308.423L209.071 308.352C200.816 299.79 178.856 294.033 178.856 294.033Z" fill="#111828"/>
<path fill-rule="evenodd" clip-rule="evenodd" d="M228.348 237.162L216.848 239.564L223.47 250.187L233.005 244.375L228.348 237.162ZM180.047 285.833L169.17 281.51L168.836 293.977L179.954 294.385L180.047 285.833Z" fill="#C4947B"/>
<path d="M196.485 227.322L190.855 288.428H164.781L165.938 199.706L116.168 200.049C101.97 200.049 88.2373 187.855 89.2218 173.684L90.7698 159.256L166.775 136.802C180.846 133.621 185.724 137.824 194.847 154.062L235.124 236.622L212.998 251.408L196.485 227.322Z" fill="#F17E2C"/>
<path opacity="0.150484" fill-rule="evenodd" clip-rule="evenodd" d="M173.125 164.51L116.168 200.049L165.938 199.706L164.781 288.428H190.855L199.794 191.397C202 173.742 190.951 164.51 173.125 164.51Z" fill="#111828"/>
</svg>
