<svg width="302" height="599" viewBox="0 0 302 599" fill="none" xmlns="http://www.w3.org/2000/svg">
<path d="M63.6816 155.492C63.5125 156.234 63.2804 156.973 62.9826 157.702C62.975 157.721 62.9673 157.739 62.9597 157.758C66.3189 167.034 65.6917 177.805 60.3332 187.075C50.9106 203.377 30.2847 209.112 14.4977 199.82L-13.1775 183.53C-28.9644 174.237 -34.1718 153.297 -24.7486 136.995C-18.1101 125.51 -5.91078 119.269 6.23945 119.834C5.17998 114.182 6.06377 108.093 9.17522 102.71C14.8791 92.841 26.3174 88.3806 36.5478 91.2584C36.8561 88.2218 37.7965 85.1955 39.4203 82.3861L39.4209 82.3863C45.4115 72.0217 58.5257 68.3751 68.5626 74.2835C71.1147 75.7856 73.232 77.7666 74.872 80.0561C82.5397 78.9198 90.7267 79.7926 98.5778 83.0001C120.618 92.0045 131.665 115.999 123.252 136.593C114.838 157.187 90.1507 166.582 68.11 157.578C66.58 156.952 65.1029 156.255 63.6816 155.492Z" fill="#111828"/>
<path fill-rule="evenodd" clip-rule="evenodd" d="M71.1833 167.425C71.1833 167.425 63.7848 164.662 61.3848 161.639L68.7709 172.221L71.1833 167.425Z" fill="#CF3E83"/>
<path d="M60.3832 143.121C57.97 138.136 52.3894 133.896 54.8001 127.97C55.6466 125.889 58.3006 122.769 62.6669 124.546C68.2014 126.796 65.1343 133.057 64.7757 133.747L64.7544 133.781L64.7571 133.782C64.7478 133.8 64.7429 133.809 64.7429 133.809C65.2687 134.317 65.89 134.596 66.5892 134.681C71.0522 136.565 83.0158 139.82 95.3271 127.828C96.0733 129.823 97.0615 131.711 98.2612 133.453C101.725 138.468 106.963 142.278 113.212 144C109.836 151.217 100.096 169.059 88.5 171.559C83.7328 172.587 76.8213 170.13 71.182 167.426L62.9568 183.775C62.9568 183.775 48.5399 168.647 48.6938 166.189C54.5913 166.977 60.5647 163.619 62.9818 157.702C65.0947 152.53 63.8984 146.851 60.3832 143.121Z" fill="#643229"/>
<path opacity="0.39" fill-rule="evenodd" clip-rule="evenodd" d="M97.9236 147.349L97.8435 159.491L93.0323 157.409L97.9236 147.349Z" fill="#111828"/>
<path fill-rule="evenodd" clip-rule="evenodd" d="M93.2847 145.982C92.3286 148.024 90.4744 149.161 89.142 148.522C87.8096 147.884 87.5042 145.711 88.4598 143.669C89.4159 141.627 91.27 140.49 92.6025 141.129C93.9349 141.767 94.24 143.941 93.2847 145.982Z" fill="black"/>
<path fill-rule="evenodd" clip-rule="evenodd" d="M106.243 150.888C105.287 152.929 103.433 154.067 102.101 153.428C100.768 152.789 100.463 150.616 101.419 148.574C102.375 146.533 104.229 145.395 105.561 146.034C106.894 146.672 107.199 148.846 106.243 150.888Z" fill="black"/>
<path d="M89.799 161.92C89.799 161.92 86.2083 161.678 84.5215 156.759" stroke="#111828" stroke-width="3"/>
<path opacity="0.401762" fill-rule="evenodd" clip-rule="evenodd" d="M71.1713 167.42C71.1713 167.42 63.7723 164.657 61.373 161.633L68.7592 172.216L71.1713 167.42Z" fill="black"/>
<path d="M-151.664 525.999C-143.35 507.332 -90.7477 389.455 -57.8043 319.998C-34.9713 271.855 -3.59551 253.032 2.12785 249.903L50.4912 269.662C50.3224 270.327 37.46 320.405 -1.88432 420.113C-37.1168 509.408 -58.062 557.527 -60.5334 563.183L-60.5346 563.186L-58.989 563.814L-62.1043 571.468L-87.1651 561.278L-84.0498 553.624L-83.1857 553.976L-83.1855 553.975L-32.3772 393.284L-17.1735 345.189L-128.61 535.371L-128.611 535.372L-127.36 535.881L-130.921 543.352L-156.868 532.802L-153.306 525.332L-151.665 525.999L-151.664 525.999Z" fill="#FCCB2D"/>
<path opacity="0.398065" fill-rule="evenodd" clip-rule="evenodd" d="M-17.1733 345.191L6.62927 301.791L-32.3775 393.283L-17.1733 345.191Z" fill="#0A0A0F"/>
<path fill-rule="evenodd" clip-rule="evenodd" d="M138.057 214.942L139.629 210.384C139.629 210.384 140.9 207.286 142.657 204.098C143.097 203.298 143.67 202.507 144.282 201.663L144.282 201.663C146.109 199.142 148.283 196.142 148.314 190.99C148.353 184.117 152.361 190.51 152.47 193.832C152.512 195.115 151.983 196.814 151.459 198.498C150.852 200.446 150.251 202.376 150.546 203.625C151.882 203.458 152.93 202.957 152.93 202.957L171.832 191.618C172.45 191.23 173.245 191.363 173.696 191.925L174.203 192.563C174.737 193.236 174.583 194.24 173.867 194.726C172.494 195.661 170.13 197.219 167.658 198.848C163.174 201.803 158.337 204.989 158.437 205.111L158.596 205.649L179.329 195.921C179.99 195.586 180.78 195.801 181.172 196.422L181.783 197.391C182.228 198.094 181.998 199.042 181.278 199.467C178.914 200.878 173.321 203.74 168.665 206.123C164.636 208.184 161.309 209.887 161.381 209.98L161.636 210.581L179.974 203.882C180.67 203.532 181.503 203.8 181.865 204.481L182.293 205.297C182.672 206.008 182.402 206.911 181.694 207.304L164.071 214.374L164.194 215.113L178.396 211.66C179.089 211.404 179.846 211.713 180.168 212.378L180.357 212.784C180.694 213.497 180.408 214.369 179.706 214.747C178.589 215.352 176.624 215.943 174.281 216.647C171.586 217.458 168.39 218.42 165.41 219.725C163.769 220.444 162.361 221.231 160.934 222.028L160.934 222.029L160.934 222.029C158.604 223.331 156.224 224.661 152.697 225.769C150.59 226.436 148.856 226.615 147.206 226.786L147.205 226.786C146.972 226.811 146.74 226.834 146.51 226.86L138.057 214.942ZM43.6736 164.453C43.6736 164.453 52.1288 167.887 58.2347 170.357C64.3403 172.827 70.9229 178.613 70.9229 178.613C70.9229 178.613 71.1215 189.523 57.6062 183.021C44.0913 176.517 43.6736 164.453 43.6736 164.453ZM-17.8758 183.125C-17.8758 183.125 -39.9865 198.618 -44.4551 210.432C-49.7234 224.361 -21.0123 275.605 -21.0123 275.605L-6.18722 270.811L-17.1767 221.208L1.33989 203.705L-17.8758 183.125Z" fill="#643229"/>
<path d="M-2.50717 252.65L0.341009 264.491L-26.8108 274.288C-26.8108 274.288 -51.9303 231.792 -44.2062 209.674C-39.2863 195.587 -19.5838 180.658 -19.5838 180.658C-19.5838 180.658 4.93937 162.425 25.1919 161.165C29.348 160.906 38.3353 162.946 43.6727 164.453C45.3088 164.915 44.1161 165.164 44.2168 166.451C44.322 167.795 45.3541 170.145 46.0304 171.863C47.4383 175.439 51.4876 179.365 53.9271 180.826C55.7861 181.94 59.4264 183.977 61.3748 184.474C63.3231 184.971 65.6797 184.928 66.4245 184.635C67.1694 184.342 68.2279 184.027 69.0444 183.209C69.8609 182.392 69.7244 182.666 70.0962 181.756C70.468 180.845 70.3677 180.962 70.4586 180.493C70.5495 180.025 70.6558 179.765 70.6965 179.52C70.8767 178.438 70.922 178.613 70.922 178.613C79.6315 185.815 84.2173 189.036 85.9993 195.064L105.547 226.618L135.064 208.694L152.637 235.779C152.637 235.779 113.785 268.812 96.1442 267.012C81.9338 265.562 73.8249 248.704 71.2085 242.203L65.0506 272.609C63.921 277.832 59.0477 277.992 55.4471 276.32L-2.50717 252.65Z" fill="#3EB62B"/>
<path opacity="0.201242" fill-rule="evenodd" clip-rule="evenodd" d="M71.1189 242.185L73.3496 227.235L74.7315 249.476L71.1189 242.185Z" fill="black"/>
<path opacity="0.200591" d="M-3.63112 248.368L-9.83088 219.293L20.8855 197.559" stroke="black" stroke-width="2"/>
</svg>
