<svg width="318" height="726" viewBox="0 0 318 726" fill="none" xmlns="http://www.w3.org/2000/svg">
<path fill-rule="evenodd" clip-rule="evenodd" d="M205.092 182.426C208.076 191.403 216.24 196.77 223.328 194.415C230.415 192.059 233.742 182.872 230.758 173.895C227.774 164.918 219.61 159.551 212.523 161.907C205.435 164.263 202.108 173.449 205.092 182.426Z" fill="#111828"/>
<path d="M256.864 236.722L251.196 217.875C251.196 217.875 229.265 227.171 223.607 226.252C223.607 226.252 207.559 197.651 208.96 178.393L208.883 177.687L254.569 156.283L266.366 182.868C266.387 177.579 277.813 167.792 283.532 173.455C295.925 185.725 272.455 204.562 272.455 204.562L283.323 228.176" fill="#C4947B"/>
<path opacity="0.398926" fill-rule="evenodd" clip-rule="evenodd" d="M251.196 217.875L265.299 209.545L253.596 224.855L251.196 217.875Z" fill="#111828"/>
<path opacity="0.39" fill-rule="evenodd" clip-rule="evenodd" d="M229.964 194.58L229.009 209.248L235.328 207.237L229.964 194.58Z" fill="#111828"/>
<path fill-rule="evenodd" clip-rule="evenodd" d="M235.729 193.216C235.994 195.06 237.696 196.345 239.529 196.085C241.362 195.825 242.633 194.119 242.367 192.276C242.101 190.431 240.4 189.147 238.566 189.406C236.733 189.667 235.463 191.372 235.729 193.216Z" fill="#202938"/>
<path fill-rule="evenodd" clip-rule="evenodd" d="M218.086 199.08C218.352 200.925 220.054 202.209 221.886 201.949C223.72 201.689 224.99 199.983 224.724 198.14C224.459 196.295 222.757 195.011 220.924 195.271C219.091 195.531 217.82 197.236 218.086 199.08Z" fill="#202938"/>
<path d="M264.394 188.731C266.32 179.464 272.055 174.926 274.752 173.259C274.79 169.472 274.37 165.236 273.603 160.836C271.551 149.061 260.049 141.519 252.529 140.755C244.917 139.983 232.126 139.657 217.269 150.808C207.282 158.308 197.103 151.684 191.769 157.731C182.655 168.065 202.739 193.371 228.962 176.53C247.719 164.484 248.683 165.622 250.123 169.367C254.778 181.475 259.087 188.076 264.394 188.731Z" fill="black"/>
<path fill-rule="evenodd" clip-rule="evenodd" d="M243.188 205.159C243.188 205.159 242.396 209.526 238.001 210.889L243.188 205.159Z" fill="white"/>
<path d="M243.188 205.159C243.188 205.159 242.396 209.526 238.001 210.889" stroke="#384152" stroke-width="2"/>
<path fill-rule="evenodd" clip-rule="evenodd" d="M231.706 194.725C233.051 198.771 237.399 200.967 241.418 199.631C245.436 198.296 247.604 193.934 246.259 189.888C244.914 185.842 240.566 183.645 236.548 184.98C232.529 186.316 230.361 190.679 231.706 194.725Z" stroke="#384152" stroke-width="1.5"/>
<path fill-rule="evenodd" clip-rule="evenodd" d="M213.384 200.815C214.729 204.861 219.077 207.057 223.095 205.722C227.114 204.386 229.282 200.023 227.937 195.978C226.592 191.932 222.244 189.735 218.225 191.071C214.207 192.406 212.039 196.769 213.384 200.815Z" stroke="#384152" stroke-width="1.5"/>
<path d="M228.644 196.12L231.79 195.074" stroke="#384152" stroke-width="1.5"/>
<path d="M246.26 189.888L264.235 183.913" stroke="#384152" stroke-width="1.5"/>
<path d="M367.866 643.184L373.041 657.243L398.943 648.633L393.752 634.533C396.265 632.398 397.402 628.894 396.368 625.546L329.794 411.327L446.265 611.226C447.905 614.038 450.915 615.644 454.035 615.568L460.144 628.291L487.303 619.264L480.09 605.372C481.765 602.858 482.113 599.524 480.633 596.578L344.498 325.577L307.017 338.034L306.983 337.925L261.587 353.014L359.158 637.472C360.443 641.212 364.084 643.488 367.866 643.184Z" fill="#F17E2C"/>
<path opacity="0.197824" fill-rule="evenodd" clip-rule="evenodd" d="M331.145 414.623L311.423 381.842L353.099 487.248L331.145 414.623Z" fill="#111828"/>
<path fill-rule="evenodd" clip-rule="evenodd" d="M166.822 276.23L165.338 270.723C165.338 270.723 164.082 266.965 162.247 263.068C161.786 262.09 161.164 261.114 160.5 260.072C158.517 256.961 156.158 253.259 156.597 247.152C157.184 239.007 151.734 246.308 151.295 250.235C151.125 251.753 151.61 253.801 152.09 255.832C152.646 258.182 153.196 260.509 152.723 261.968C151.118 261.679 149.894 261.014 149.894 261.014L128.02 246.288C127.306 245.786 126.33 245.889 125.731 246.524L125.057 247.246C124.348 248.007 124.442 249.206 125.266 249.831C126.843 251.033 129.567 253.04 132.413 255.139C137.579 258.946 143.149 263.052 143.017 263.19L142.775 263.816L118.531 250.873C117.761 250.431 116.783 250.632 116.25 251.341L115.42 252.447C114.815 253.249 115.007 254.388 115.841 254.941C118.577 256.774 125.095 260.547 130.521 263.688L130.522 263.688C135.216 266.406 139.094 268.651 138.997 268.756L138.633 269.451L117.014 260.261C116.202 259.798 115.168 260.059 114.666 260.841L114.071 261.778C113.547 262.595 113.79 263.682 114.612 264.197L135.33 273.778L135.112 274.645L118.209 269.583C117.393 269.232 116.446 269.547 115.994 270.312L115.728 270.781C115.253 271.602 115.52 272.654 116.335 273.151C117.635 273.943 119.963 274.778 122.738 275.773L122.738 275.773C125.933 276.918 129.719 278.276 133.212 280.026C135.135 280.99 136.77 282.018 138.427 283.061C141.132 284.763 143.895 286.501 148.07 288.055C150.564 288.989 152.65 289.32 154.635 289.636L154.639 289.637C154.918 289.681 155.196 289.725 155.472 289.77L166.822 276.23ZM285.937 222.871C285.937 222.871 275.367 226.361 267.735 228.87C260.103 231.378 251.586 237.783 251.586 237.783C251.586 237.783 250.338 250.693 267.328 243.915C284.317 237.135 285.937 222.871 285.937 222.871ZM358.85 249.201C358.85 249.201 384.231 269.067 388.559 283.368C393.661 300.231 354.113 358.976 354.113 358.976L336.578 352.282L354.485 294.269L333.648 272.268L358.85 249.201Z" fill="#C4947B"/>
<path d="M333.793 330.515L329.246 344.348L361.266 357.811C361.266 357.811 395.651 309.184 388.327 282.454C383.662 265.428 361.149 246.394 361.149 246.394C361.149 246.394 333.095 223.117 308.652 220.239C303.636 219.649 292.55 221.45 285.938 222.871C283.912 223.306 285.335 223.682 285.094 225.2C284.842 226.786 283.374 229.499 282.395 231.488C280.358 235.628 275.085 240.002 271.992 241.567C269.634 242.759 265.032 244.924 262.623 245.379C260.215 245.834 257.361 245.623 256.485 245.224C255.609 244.826 254.354 244.381 253.44 243.356C252.525 242.332 252.665 242.666 252.299 241.562C251.932 240.458 252.043 240.603 251.976 240.042C251.909 239.481 251.804 239.165 251.777 238.872C251.658 237.578 251.587 237.783 251.587 237.783C240.361 245.719 234.503 249.222 231.785 256.241L205.167 292.285L171.029 269.033L147.218 299.918C147.218 299.918 191.281 341.709 212.839 340.783C230.205 340.037 241.595 320.62 245.368 313.097L250.027 349.541C250.915 355.805 256.809 356.328 261.33 354.593L333.793 330.515Z" fill="#23A8B3"/>
<path opacity="0.201242" fill-rule="evenodd" clip-rule="evenodd" d="M245.479 313.082L244.154 295.218L240.425 321.473L245.479 313.082Z" fill="#111828"/>
<path opacity="0.200591" d="M335.553 325.519L345.756 291.498L310.515 263.649" stroke="#111828"/>
</svg>
