<svg width="387" height="397" viewBox="0 0 387 397" fill="none" xmlns="http://www.w3.org/2000/svg">
<path d="M240.426 40.1685C279.668 53.3423 309.926 95.7567 327.561 141.808C345.195 187.86 349.878 237.413 331.647 273.81C313.185 310.304 271.809 333.642 229.7 347.424C187.919 361.342 145.734 365.839 116.044 349.491C86.1233 333.239 68.6985 296.142 61.6811 261.814C54.4322 227.583 57.4568 196.452 66.2689 162.899C75.3124 129.25 90.1071 93.7422 121.733 67.9067C153.128 42.168 201.318 26.6646 240.426 40.1685Z" fill="#3EB62B"/>
<mask id="mask0_181_45511" style="mask-type:alpha" maskUnits="userSpaceOnUse" x="57" y="35" width="287" height="325">
<path d="M240.426 40.1685C279.668 53.3423 309.926 95.7567 327.561 141.808C345.195 187.86 349.878 237.413 331.647 273.81C313.185 310.304 271.809 333.642 229.7 347.424C187.919 361.342 145.734 365.839 116.044 349.491C86.1233 333.239 68.6985 296.142 61.6811 261.814C54.4322 227.583 57.4568 196.452 66.2689 162.899C75.3124 129.25 90.1071 93.7422 121.733 67.9067C153.128 42.168 201.318 26.6646 240.426 40.1685Z" fill="#3EB62B"/>
</mask>
<g mask="url(#mask0_181_45511)">
<path d="M162.465 131.054L162.133 119.649C162.133 119.649 176.094 120.752 179.08 119.212C179.08 119.212 182.03 100.435 178.289 89.8001L148.827 86.3789L146.675 103.418C145.683 100.512 137.993 96.9614 135.852 101.123C131.212 110.14 147.802 116.212 147.802 116.212L146.118 131.192" fill="#88512E"/>
<path d="M147.713 104.421C144.903 100.592 141.266 99.5324 140.262 99.3042C139.038 93.8542 137.601 79.7452 154.736 77.507C175.193 74.8351 178.289 89.7986 178.289 89.7986L151.937 89.478V103.373L147.713 104.421Z" fill="#111828"/>
<path opacity="0.402158" fill-rule="evenodd" clip-rule="evenodd" d="M162.132 119.648L152.719 117.645L162.087 123.928L162.132 119.648Z" fill="black"/>
<path opacity="0.39" fill-rule="evenodd" clip-rule="evenodd" d="M169.898 101.008L173.151 108.903L169.252 108.953L169.898 101.008Z" fill="#111828"/>
<path fill-rule="evenodd" clip-rule="evenodd" d="M166.189 103.253C166.383 104.316 165.672 105.334 164.601 105.526C163.53 105.719 162.505 105.012 162.311 103.95C162.117 102.886 162.829 101.868 163.899 101.676C164.971 101.484 165.996 102.19 166.189 103.253Z" fill="#111828"/>
<path fill-rule="evenodd" clip-rule="evenodd" d="M176.42 103.253C176.614 104.316 175.902 105.334 174.832 105.526C173.76 105.719 172.735 105.012 172.542 103.95C172.348 102.886 173.059 101.868 174.13 101.676C175.201 101.484 176.226 102.19 176.42 103.253Z" fill="#111828"/>
<path fill-rule="evenodd" clip-rule="evenodd" d="M165.854 111.188C165.854 111.188 167.216 113.381 169.915 113.195L165.854 111.188Z" fill="white"/>
<path d="M165.854 111.188C165.854 111.188 167.216 113.381 169.915 113.195" stroke="#111828" stroke-width="2"/>
<path d="M153.525 242.972L125.232 381.864H103.539L129.487 198.336H180.807L179.021 381.155L172.363 381.25L159.688 381.437H159.642L156.41 381.483L153.525 242.972Z" fill="#2F2F3D"/>
<path opacity="0.200893" fill-rule="evenodd" clip-rule="evenodd" d="M153.602 241.944L158.482 220.457L154.81 285.601L153.602 241.944Z" fill="black"/>
<path d="M188.833 161.686L181.341 165.643L179.486 196.677H127.779L126.912 165.366L110.562 153.204C110.562 153.204 118.273 137.823 131.465 131.702C134.902 130.11 139.225 129.264 143.545 128.86C152.208 128.049 160.843 128.991 162.247 129.16L162.445 129.183C162.69 129.256 162.935 129.329 163.172 129.402C163.176 129.402 163.18 129.406 163.184 129.406C163.884 129.622 164.544 129.829 165.174 130.033C173.926 132.882 176.695 135.189 181.598 142.018C186.259 148.509 188.833 161.686 188.833 161.686Z" fill="#FCCB2D"/>
<path opacity="0.200219" d="M126.912 165.364L131.059 168.156L141.029 156.641" stroke="black"/>
<path fill-rule="evenodd" clip-rule="evenodd" d="M167.71 187.614C167.71 187.614 169.343 188.025 169.374 189.04C169.374 189.329 159.425 191.19 159.425 191.19L161.591 191.317L163.842 191.209C163.842 191.209 165.012 191.424 165.078 192.386C165.101 192.766 163.029 193.174 160.619 193.485C156.87 193.974 154.176 193.543 151.54 192.832C151.318 192.77 151.104 192.716 150.898 192.662L153.041 179.039C153.76 179.689 155.12 180.842 160.976 182.288C162.15 182.577 166.093 182.63 166.093 182.63C167.251 182.796 169.685 183.019 169.853 184.368C169.895 184.703 169.471 185.064 169.471 185.064C169.471 185.064 170.999 185.168 171.093 186.537C171.132 187.075 167.71 187.614 167.71 187.614Z" fill="#18181C"/>
<path fill-rule="evenodd" clip-rule="evenodd" d="M184.667 206.586H148.496L156.608 157.211H192.779L184.667 206.586Z" fill="#384152"/>
<path fill-rule="evenodd" clip-rule="evenodd" d="M186.611 206.586H150.439L158.551 157.211H194.723L186.611 206.586Z" fill="#6B7380"/>
<path fill-rule="evenodd" clip-rule="evenodd" d="M143.546 128.86C144.82 130.848 148.837 135.805 157.457 136.308C167.752 136.904 165.416 130.629 165.175 130.033C165.159 130.002 165.151 129.987 165.151 129.987C165.151 129.987 164.385 129.733 163.184 129.406C163.182 129.406 163.18 129.405 163.178 129.404C163.176 129.403 163.174 129.402 163.172 129.402C162.889 129.326 162.578 129.245 162.247 129.16C160.843 128.991 152.208 128.049 143.546 128.86ZM142.174 177.093L144.684 176.244C144.684 176.244 146.294 175.621 149.012 175.125C150.017 174.942 150.858 174.909 151.74 174.875H151.74C152.356 174.851 152.992 174.826 153.717 174.748L153.118 178.551C153.005 178.632 152.904 178.728 152.807 178.832C152.861 178.878 152.917 178.928 152.976 178.982L152.977 178.982L153.04 179.04C153.759 179.689 155.12 180.843 160.976 182.289C162.15 182.577 166.092 182.631 166.092 182.631C166.178 182.643 166.271 182.656 166.37 182.669C167.6 182.836 169.697 183.119 169.852 184.369C169.895 184.703 169.471 185.065 169.471 185.065C169.471 185.065 170.999 185.169 171.092 186.538C171.131 187.076 167.71 187.614 167.71 187.614C167.71 187.614 169.343 188.026 169.374 189.041C169.374 189.329 159.424 191.19 159.424 191.19L161.59 191.317L163.841 191.209C163.841 191.209 165.012 191.425 165.077 192.386C165.101 192.767 163.028 193.174 160.618 193.486C156.87 193.974 154.175 193.543 151.539 192.832C151.378 192.787 151.22 192.747 151.067 192.707L150.898 192.663C150.508 192.562 150.149 192.472 149.809 192.388L149.809 192.388C147.789 191.885 146.472 191.558 143.483 189.948C143.16 189.774 142.805 189.564 142.437 189.333C133.476 190.175 106.316 192.243 103.594 186.71C98.2105 175.766 112.378 154.587 112.378 154.587L128.061 165.433L123.077 173.805L142.174 177.093ZM178.191 204.89H186.519L188.387 193.518L192.216 209.698C194.58 212.379 197.308 215.545 197.721 216.324C198.469 217.737 199.853 224.732 199.786 226.114C199.72 227.496 195.41 233.706 195.41 233.706C192.736 233.076 194.483 229.869 194.483 229.869C194.483 229.869 192.088 231.817 191.092 231.784C181.713 231.476 182.216 226.909 182.438 226.338C182.936 225.053 185.439 226.522 185.439 226.522C185.439 226.522 181.091 218.039 181.655 211.557C180.681 209.738 179.483 207.454 178.191 204.89Z" fill="#88512E"/>
<path opacity="0.199382" d="M187.447 215.684C187.447 215.684 188.763 220.464 193.28 221.954C194.859 222.475 194.464 228.624 198.335 227.889" stroke="black"/>
<path fill-rule="evenodd" clip-rule="evenodd" d="M161.929 161.193C161.768 162.011 161.288 162.606 160.859 162.523C160.429 162.44 160.212 161.71 160.374 160.892C160.536 160.075 161.015 159.479 161.445 159.562C161.874 159.646 162.091 160.376 161.929 161.193Z" fill="#384152"/>
<path fill-rule="evenodd" clip-rule="evenodd" d="M249.284 361.345L248.436 353.938L255.881 350.477L256.653 371.692L227.588 371.642C233.516 365.485 249.284 361.345 249.284 361.345ZM292.557 351.914L300.794 352.093L300.711 361.523C300.711 361.523 308.658 362.903 311.412 371.692H290.749L291.645 361.102L292.557 351.914Z" fill="#0D0B6D"/>
<path fill-rule="evenodd" clip-rule="evenodd" d="M291.664 352.437L299.699 349.609L300.775 361.101L291.709 361.521L291.664 352.437ZM248.243 355.195L256.053 352.087L256.293 361.051L248.31 361.344L248.243 355.195Z" fill="#F6CBBA"/>
<path d="M302.564 353.975C302.196 342.485 299.817 269.901 297.373 226.718C295.679 196.787 283.003 180.308 280.624 177.461H250.422C250.367 177.843 246.302 206.661 245.558 266.961C244.89 320.962 245.578 350.48 245.665 353.951L245.665 353.953L244.7 353.951L244.694 358.6L260.333 358.625L260.34 353.976L259.8 353.975L259.8 353.975L267.742 259.476L270.121 231.193L288.177 353.951L288.178 353.952L287.397 353.95L287.669 358.599L303.861 358.626L303.589 353.977L302.564 353.975L302.564 353.975Z" fill="#2F2F3D"/>
<path opacity="0.398065" fill-rule="evenodd" clip-rule="evenodd" d="M270.121 231.195L266.872 203.527L267.743 259.476L270.121 231.195Z" fill="#0A0A0F"/>
</g>
<path d="M236.442 99.6956C236.436 99.9257 236.433 100.157 236.433 100.388C236.432 100.554 236.432 100.717 236.436 100.883L236.432 100.883L236.424 106.214L236.366 145.385L288.99 145.463L289.056 100.962L288.993 100.962C289.036 100.353 289.058 99.7385 289.059 99.1189C289.068 93.1436 287.09 87.6299 283.749 83.2047C289.838 81.6391 294.342 76.1101 294.352 69.5231C294.363 61.7103 288.048 55.3671 280.246 55.3555C272.444 55.3438 266.11 61.6679 266.098 69.4807C266.096 70.696 266.248 71.8758 266.534 73.0017C265.31 72.825 264.059 72.7327 262.786 72.7308C248.254 72.7089 236.457 84.4883 236.435 99.0405C236.434 99.2595 236.437 99.4779 236.442 99.6956Z" fill="#111828"/>
<path d="M262.963 99.0417C262.53 99.1783 262.082 99.2952 261.622 99.3907C261.25 99.4702 260.871 99.5338 260.483 99.5816C259.859 99.665 259.216 99.7042 258.563 99.7031C254.422 99.697 250.809 98.0232 248.874 95.5391C248.772 95.935 248.655 96.3245 248.524 96.7065C248.452 96.9009 248.381 97.1027 248.298 97.2967C247.78 98.6041 247.089 99.8157 246.256 100.897C245.095 102.4 243.655 103.653 242.021 104.566C242.755 109.823 244.555 116.894 248.787 119.714C251.117 121.265 255.352 121.456 258.959 121.248L259.788 131.511C259.788 131.511 265.644 128.953 268.997 127.058C269.575 126.733 270.077 126.425 270.461 126.153C270.398 125.549 270.253 124.142 270.07 122.386V122.379C269.738 119.215 269.286 114.914 268.99 112.079C270.966 109.079 276.348 108.404 276.355 104.184C276.355 102.918 275.618 100.73 272.893 100.727C269.237 100.72 269.755 105.11 269.755 105.11C267.684 105.917 265.217 102.775 262.963 99.0417Z" fill="#F6CBBA"/>
<path opacity="0.39" fill-rule="evenodd" clip-rule="evenodd" d="M249.037 106.43L246.425 112.77L249.455 112.71L249.037 106.43Z" fill="#111828"/>
<path fill-rule="evenodd" clip-rule="evenodd" d="M251.818 106.705C251.883 107.971 252.627 108.958 253.479 108.909C254.332 108.86 254.971 107.793 254.906 106.526C254.84 105.26 254.097 104.273 253.244 104.322C252.391 104.371 251.753 105.438 251.818 106.705Z" fill="#111828"/>
<path fill-rule="evenodd" clip-rule="evenodd" d="M243.81 106.502C243.875 107.768 244.619 108.755 245.472 108.706C246.324 108.657 246.963 107.59 246.898 106.324C246.833 105.057 246.089 104.07 245.236 104.119C244.383 104.168 243.745 105.235 243.81 106.502Z" fill="#111828"/>
<path d="M250.198 115.744C250.198 115.744 252.172 116.383 254.15 114.18" stroke="#111828" stroke-width="2"/>
<path opacity="0.401344" fill-rule="evenodd" clip-rule="evenodd" d="M258.96 121.25C258.96 121.25 263.523 121.385 265.469 120.32L259.202 124.26L258.96 121.25Z" fill="black"/>
<path fill-rule="evenodd" clip-rule="evenodd" d="M275.645 178.243L278.084 178.207C278.084 178.207 278.08 178.169 278.077 178.087C277.237 178.147 276.425 178.196 275.645 178.243Z" fill="#C83820"/>
<path d="M225.952 204.708L234.003 205.719L246.97 185.41L247.443 178.66L267.197 178.366L275.629 178.243H275.646C276.426 178.196 277.238 178.147 278.078 178.087C288.698 177.345 303.412 175.277 304.421 169.551C306.253 159.181 292.397 139.057 290.759 136.724C290.657 136.579 290.604 136.502 290.604 136.502C288.282 133.179 285.945 130.596 283.764 129.221C279.521 126.545 275.544 125.958 271.764 125.969L270.751 118.621L255.331 120.752L256.171 126.86C251.643 127.294 248.562 128.181 245.678 130.832C236.42 139.343 235.739 171.22 235.739 171.22L225.952 204.708Z" fill="#23A8B3"/>
<path fill-rule="evenodd" clip-rule="evenodd" d="M267.197 178.367V178.508C267.197 178.508 270.734 178.516 275.629 178.243L267.197 178.367Z" fill="#C83820"/>
<path opacity="0.201149" d="M247.727 178.579C246.594 164.179 238.757 161.134 244.404 144.984" stroke="black"/>
<path fill-rule="evenodd" clip-rule="evenodd" d="M234.394 196.394L263.843 192.995C264.807 192.883 265.442 191.934 265.178 190.999L253.542 149.831C253.332 149.087 252.614 148.606 251.847 148.694L222.398 152.093C221.434 152.204 220.799 153.154 221.063 154.089L232.699 195.257C232.909 196.001 233.627 196.483 234.394 196.394Z" fill="#384152"/>
<path d="M260.544 181.007C260.488 181.022 260.431 181.037 260.374 181.053C258.328 181.612 256.236 181.951 253.328 181.567C251.457 181.322 249.848 181.002 249.866 180.703C249.918 179.947 250.826 179.778 250.826 179.778L252.573 179.863L254.254 179.763C254.254 179.763 246.532 178.3 246.532 178.074C246.556 177.276 247.824 176.953 247.824 176.953C247.824 176.953 245.168 176.53 245.199 176.107C245.271 175.031 246.457 174.949 246.457 174.949C246.457 174.949 246.128 174.665 246.161 174.402C246.291 173.342 248.18 173.166 249.079 173.037C249.079 173.037 252.139 172.995 253.05 172.768C255.447 172.168 256.873 171.633 257.768 171.186L251.788 150.03C251.578 149.286 250.86 148.805 250.093 148.893L220.644 152.293C219.68 152.404 219.045 153.353 219.309 154.288L230.945 195.456C231.155 196.2 231.873 196.682 232.64 196.593L262.089 193.194C263.053 193.083 263.689 192.133 263.424 191.198L260.544 181.007Z" fill="#6B7380"/>
<path fill-rule="evenodd" clip-rule="evenodd" d="M246.533 178.075C246.557 177.278 247.825 176.954 247.825 176.954C247.825 176.954 245.17 176.531 245.2 176.108C245.272 175.033 246.458 174.951 246.458 174.951C246.458 174.951 246.129 174.667 246.162 174.404C246.282 173.422 247.911 173.199 248.866 173.068C248.942 173.058 249.014 173.048 249.08 173.038C249.08 173.038 252.14 172.996 253.051 172.769C257.596 171.633 258.652 170.727 259.21 170.216C259.227 170.2 259.243 170.185 259.259 170.17C259.306 170.128 259.348 170.089 259.391 170.053C259.36 170.019 259.324 169.962 259.287 169.903C259.234 169.819 259.179 169.731 259.128 169.694L258.351 166.844C258.92 166.905 259.476 166.925 260.026 166.944C260.799 166.97 261.562 166.997 262.336 167.14C264.445 167.529 265.694 168.019 265.694 168.019L268.386 168.941L270.338 176.175C269.599 176.833 267.828 178.133 266.626 178.788C264.307 180.053 263.285 180.311 261.718 180.706C261.454 180.772 261.175 180.842 260.872 180.922C260.838 180.931 260.803 180.94 260.768 180.949C260.641 180.982 260.51 181.017 260.375 181.055C258.329 181.614 256.238 181.952 253.329 181.568C251.458 181.323 249.85 181.003 249.868 180.704C249.919 179.949 250.827 179.78 250.827 179.78L252.574 179.864L254.255 179.764C254.255 179.764 246.533 178.302 246.533 178.075ZM221.66 210.264C221.988 209.618 224.242 206.907 226.093 204.726L233.799 205.693C234.681 210.905 231.015 218.353 231.015 218.353C231.015 218.353 232.922 217.188 233.301 218.207C233.47 218.66 233.853 222.282 226.709 222.526C225.951 222.552 224.126 221.007 224.126 221.007C224.126 221.007 225.457 223.551 223.42 224.051C223.42 224.051 220.137 219.125 220.087 218.029C220.037 216.933 221.09 211.385 221.66 210.264Z" fill="#F6CBBA"/>
<path opacity="0.148065" d="M229.555 208.414C229.555 208.414 228.552 212.206 225.112 213.388C223.909 213.801 224.209 218.678 221.261 218.095" stroke="black"/>
<path fill-rule="evenodd" clip-rule="evenodd" d="M248.797 152.73C249.029 153.459 249.524 153.953 249.903 153.833C250.282 153.712 250.401 153.023 250.169 152.293C249.937 151.563 249.442 151.069 249.063 151.19C248.685 151.311 248.566 152 248.797 152.73Z" fill="#384152"/>
<path opacity="0.200498" d="M278.46 147.84L285.893 160.165L267.412 167.488" stroke="black"/>
<path d="M208.871 77C208.871 77 209.636 72.1804 207.441 71.2198C205.596 70.4127 203.997 73.9816 202.482 72.6878C200.947 71.3771 204.779 69.3008 203.531 67.7332C202.217 66.0834 198 67.7332 198 67.7332" stroke="#FEEFC0" stroke-width="1.2"/>
<path d="M207.195 153.664C207.195 153.664 209.228 141.885 212.916 141.581C214.942 141.414 217.036 141.701 217.547 143.557C217.941 144.988 217.274 146.148 216.133 147.241C213.715 149.557 210.052 146.808 208.549 144.063C206.473 140.272 214.076 133.817 214.076 133.817" stroke="#C5E9BF" stroke-width="1.2"/>
<path d="M252.195 34.6639C252.195 34.6639 254.228 22.8852 257.916 22.5808C259.942 22.4136 262.036 22.7013 262.547 24.5575C262.941 25.9883 262.274 27.1476 261.133 28.2413C258.715 30.5575 255.052 27.8078 253.549 25.0625C251.473 21.2722 259.076 14.8175 259.076 14.8175" stroke="#C5E9BF" stroke-width="1.2"/>
<path d="M143.195 65.6639C143.195 65.6639 145.228 53.8852 148.916 53.5808C150.942 53.4136 153.036 53.7013 153.547 55.5575C153.941 56.9883 153.274 58.1476 152.133 59.2413C149.715 61.5575 146.052 58.8078 144.549 56.0625C142.473 52.2722 150.076 45.8175 150.076 45.8175" stroke="#C5E9BF" stroke-width="1.2"/>
<path d="M231.077 99.6639C231.077 99.6639 229.043 87.8852 225.355 87.5808C223.329 87.4136 221.235 87.7013 220.724 89.5575C220.33 90.9883 220.997 92.1476 222.139 93.2413C224.557 95.5575 228.219 92.8078 229.723 90.0625C231.799 86.2722 224.195 79.8175 224.195 79.8175" stroke="#C5E9BF" stroke-width="1.2"/>
<path d="M204.077 51.6639C204.077 51.6639 202.043 39.8852 198.355 39.5808C196.329 39.4136 194.235 39.7013 193.724 41.5575C193.33 42.9883 193.997 44.1476 195.139 45.2413C197.557 47.5575 201.219 44.8078 202.723 42.0625C204.799 38.2722 197.195 31.8175 197.195 31.8175" stroke="#C5E9BF" stroke-width="1.2"/>
<path d="M191.141 117C191.141 117 190.306 112.18 192.701 111.22C194.713 110.413 196.457 113.982 198.111 112.688C199.785 111.377 195.605 109.301 196.966 107.733C198.399 106.083 203 107.733 203 107.733" stroke="#FEEFC0" stroke-width="1.2"/>
<path d="M226.129 51C226.129 51 225.364 45.6984 227.559 44.6417C229.404 43.754 231.003 47.6798 232.518 46.2565C234.053 44.8148 230.221 42.5309 231.469 40.8066C232.783 38.9918 237 40.8066 237 40.8066" stroke="#FEEFC0" stroke-width="1.2"/>
<path d="M187.129 22C187.129 22 186.364 16.6984 188.559 15.6417C190.404 14.754 192.003 18.6798 193.518 17.2565C195.053 15.8148 191.221 13.5309 192.469 11.8066C193.783 9.99178 198 11.8066 198 11.8066" stroke="#FEEFC0" stroke-width="1.2"/>
<path d="M168.129 67C168.129 67 167.364 61.6984 169.559 60.6417C171.404 59.754 173.003 63.6798 174.518 62.2565C176.053 60.8148 172.221 58.5309 173.469 56.8066C174.783 54.9918 179 56.8066 179 56.8066" stroke="#FEEFC0" stroke-width="1.2"/>
<path d="M214.859 179C214.859 179 215.694 174.18 213.299 173.22C211.287 172.413 209.543 175.982 207.889 174.688C206.215 173.377 210.395 171.301 209.034 169.733C207.601 168.083 203 169.733 203 169.733" stroke="#FEEFC0" stroke-width="1.2"/>
<rect width="5.09365" height="7.92729" transform="matrix(0.938739 0.344629 -0.405989 0.913878 190.219 132)" fill="#BDE5E8"/>
<rect width="4.53724" height="7.77267" transform="matrix(-0.922125 0.386891 0.362307 0.932059 190.184 85)" fill="#BDE5E8"/>
<rect width="4.53724" height="7.77267" transform="matrix(-0.922125 0.386891 0.362307 0.932059 151.184 20)" fill="#BDE5E8"/>
<rect width="5.09365" height="7.92729" transform="matrix(-0.938739 0.344629 0.405989 0.913878 178.781 35)" fill="#BDE5E8"/>
<rect width="5.16411" height="8.66909" transform="matrix(-0.92593 0.377696 0.371249 0.928533 220.781 112)" fill="#BDE5E8"/>
<rect width="5.16411" height="8.66909" transform="matrix(0.92593 0.377696 -0.371249 0.928533 236.219 62)" fill="#BDE5E8"/>
<rect width="5.16411" height="8.66909" transform="matrix(0.92593 0.377696 -0.371249 0.928533 224.219 15)" fill="#BDE5E8"/>
<rect width="5.16411" height="8.66909" transform="matrix(-0.92593 0.377696 0.371249 0.928533 261.781 46)" fill="#BDE5E8"/>
</svg>
