<svg width="387" height="397" viewBox="0 0 387 397" fill="none" xmlns="http://www.w3.org/2000/svg">
<path d="M240.426 40.1685C279.668 53.3423 309.926 95.7567 327.561 141.808C345.195 187.86 349.878 237.413 331.647 273.81C313.185 310.304 271.809 333.642 229.7 347.424C187.919 361.342 145.734 365.839 116.044 349.491C86.1233 333.239 68.6985 296.142 61.6811 261.814C54.4322 227.583 57.4568 196.452 66.2689 162.899C75.3124 129.25 90.1071 93.7422 121.733 67.9067C153.128 42.168 201.318 26.6646 240.426 40.1685Z" fill="#3EB62B"/>
<mask id="mask0_181_45206" style="mask-type:alpha" maskUnits="userSpaceOnUse" x="57" y="35" width="287" height="325">
<path d="M240.426 40.1685C279.668 53.3423 309.926 95.7567 327.561 141.808C345.195 187.86 349.878 237.413 331.647 273.81C313.185 310.304 271.809 333.642 229.7 347.424C187.919 361.342 145.734 365.839 116.044 349.491C86.1233 333.239 68.6985 296.142 61.6811 261.814C54.4322 227.583 57.4568 196.452 66.2689 162.899C75.3124 129.25 90.1071 93.7422 121.733 67.9067C153.128 42.168 201.318 26.6646 240.426 40.1685Z" fill="#3EB62B"/>
</mask>
<g mask="url(#mask0_181_45206)">
<path d="M162.463 131.054L162.131 119.649C162.131 119.649 176.092 120.752 179.078 119.212C179.078 119.212 182.028 100.435 178.287 89.8001L148.825 86.3789L146.673 103.418C145.681 100.512 137.991 96.9614 135.85 101.123C131.21 110.14 147.8 116.212 147.8 116.212L146.116 131.192" fill="#88512E"/>
<path d="M147.709 104.421C144.9 100.592 141.262 99.5324 140.258 99.3042C139.034 93.8542 137.597 79.7452 154.732 77.507C175.19 74.8351 178.285 89.7986 178.285 89.7986L151.933 89.478V103.373L147.709 104.421Z" fill="#111828"/>
<path opacity="0.402158" fill-rule="evenodd" clip-rule="evenodd" d="M162.132 119.648L152.719 117.645L162.087 123.928L162.132 119.648Z" fill="black"/>
<path opacity="0.39" fill-rule="evenodd" clip-rule="evenodd" d="M169.896 101.008L173.149 108.903L169.25 108.953L169.896 101.008Z" fill="#111828"/>
<path fill-rule="evenodd" clip-rule="evenodd" d="M166.187 103.253C166.381 104.316 165.67 105.334 164.599 105.526C163.528 105.719 162.503 105.012 162.309 103.95C162.115 102.886 162.827 101.868 163.897 101.676C164.969 101.484 165.994 102.19 166.187 103.253Z" fill="#111828"/>
<path fill-rule="evenodd" clip-rule="evenodd" d="M176.418 103.253C176.612 104.316 175.9 105.334 174.83 105.526C173.758 105.719 172.733 105.012 172.54 103.95C172.346 102.886 173.057 101.868 174.128 101.676C175.199 101.484 176.224 102.19 176.418 103.253Z" fill="#111828"/>
<path fill-rule="evenodd" clip-rule="evenodd" d="M165.852 111.188C165.852 111.188 167.214 113.381 169.913 113.195L165.852 111.188Z" fill="white"/>
<path d="M165.852 111.188C165.852 111.188 167.214 113.381 169.913 113.195" stroke="#111828" stroke-width="2"/>
<path d="M153.525 242.972L125.232 381.864H103.539L129.487 198.336H180.807L179.021 381.155L172.363 381.25L159.688 381.437H159.642L156.41 381.483L153.525 242.972Z" fill="#2F2F3D"/>
<path opacity="0.200893" fill-rule="evenodd" clip-rule="evenodd" d="M153.602 241.944L158.482 220.457L154.81 285.601L153.602 241.944Z" fill="black"/>
<path d="M188.833 161.686L181.341 165.643L179.486 196.677H127.779L126.912 165.366L110.562 153.204C110.562 153.204 118.273 137.823 131.465 131.702C134.902 130.11 139.225 129.264 143.545 128.86C152.208 128.049 160.843 128.991 162.247 129.16L162.445 129.183C162.69 129.256 162.935 129.329 163.172 129.402C163.176 129.402 163.18 129.406 163.184 129.406C163.884 129.622 164.544 129.829 165.174 130.033C173.926 132.882 176.695 135.189 181.598 142.018C186.259 148.509 188.833 161.686 188.833 161.686Z" fill="#FCCB2D"/>
<path opacity="0.200219" d="M126.91 165.364L131.057 168.156L141.027 156.641" stroke="black"/>
<path fill-rule="evenodd" clip-rule="evenodd" d="M167.706 187.614C167.706 187.614 169.339 188.025 169.37 189.04C169.37 189.329 159.421 191.19 159.421 191.19L161.587 191.317L163.838 191.209C163.838 191.209 165.008 191.424 165.074 192.386C165.097 192.766 163.025 193.174 160.615 193.485C156.866 193.974 154.172 193.543 151.536 192.832C151.314 192.77 151.1 192.716 150.895 192.662L153.037 179.039C153.756 179.689 155.117 180.842 160.972 182.288C162.146 182.577 166.089 182.63 166.089 182.63C167.247 182.796 169.681 183.019 169.849 184.368C169.891 184.703 169.467 185.064 169.467 185.064C169.467 185.064 170.995 185.168 171.089 186.537C171.128 187.075 167.706 187.614 167.706 187.614Z" fill="#18181C"/>
<path fill-rule="evenodd" clip-rule="evenodd" d="M184.667 206.586H148.496L156.608 157.211H192.779L184.667 206.586Z" fill="#384152"/>
<path fill-rule="evenodd" clip-rule="evenodd" d="M186.609 206.586H150.438L158.549 157.211H194.721L186.609 206.586Z" fill="#6B7380"/>
<path fill-rule="evenodd" clip-rule="evenodd" d="M143.544 128.86C144.819 130.848 148.835 135.805 157.455 136.308C167.75 136.904 165.414 130.629 165.173 130.033C165.157 130.002 165.149 129.987 165.149 129.987C165.149 129.987 164.383 129.733 163.182 129.406C163.18 129.406 163.178 129.405 163.176 129.404C163.174 129.403 163.172 129.402 163.17 129.402C162.887 129.326 162.576 129.245 162.245 129.16C160.841 128.991 152.206 128.049 143.544 128.86ZM142.172 177.093L144.682 176.244C144.682 176.244 146.292 175.621 149.01 175.125C150.015 174.942 150.856 174.909 151.738 174.875H151.738C152.354 174.851 152.99 174.826 153.715 174.748L153.116 178.551C153.003 178.632 152.902 178.728 152.805 178.832C152.86 178.878 152.915 178.928 152.974 178.982L152.975 178.982L153.038 179.04C153.757 179.689 155.118 180.843 160.974 182.289C162.148 182.577 166.09 182.631 166.09 182.631C166.176 182.643 166.269 182.656 166.368 182.669C167.598 182.836 169.695 183.119 169.85 184.369C169.893 184.703 169.469 185.065 169.469 185.065C169.469 185.065 170.997 185.169 171.09 186.538C171.13 187.076 167.708 187.614 167.708 187.614C167.708 187.614 169.341 188.026 169.372 189.041C169.372 189.329 159.422 191.19 159.422 191.19L161.588 191.317L163.839 191.209C163.839 191.209 165.01 191.425 165.075 192.386C165.099 192.767 163.026 193.174 160.616 193.486C156.868 193.974 154.173 193.543 151.537 192.832C151.376 192.787 151.218 192.747 151.065 192.707L150.896 192.663C150.506 192.562 150.147 192.472 149.807 192.388L149.807 192.388C147.787 191.885 146.47 191.558 143.481 189.948C143.158 189.774 142.803 189.564 142.435 189.333C133.474 190.175 106.314 192.243 103.592 186.71C98.2085 175.766 112.376 154.587 112.376 154.587L128.059 165.433L123.075 173.805L142.172 177.093ZM178.189 204.89H186.517L188.385 193.518L192.214 209.698C194.578 212.379 197.307 215.545 197.719 216.324C198.467 217.737 199.851 224.732 199.785 226.114C199.718 227.496 195.409 233.706 195.409 233.706C192.734 233.076 194.481 229.869 194.481 229.869C194.481 229.869 192.086 231.817 191.09 231.784C181.711 231.476 182.214 226.909 182.436 226.338C182.934 225.053 185.437 226.522 185.437 226.522C185.437 226.522 181.089 218.039 181.653 211.557C180.679 209.738 179.481 207.454 178.189 204.89Z" fill="#88512E"/>
<path opacity="0.199382" d="M187.445 215.684C187.445 215.684 188.761 220.464 193.278 221.954C194.857 222.475 194.463 228.624 198.333 227.889" stroke="black"/>
<path fill-rule="evenodd" clip-rule="evenodd" d="M161.929 161.193C161.768 162.011 161.288 162.606 160.859 162.523C160.429 162.44 160.212 161.71 160.374 160.892C160.536 160.075 161.015 159.479 161.445 159.562C161.874 159.646 162.091 160.376 161.929 161.193Z" fill="#384152"/>
<path fill-rule="evenodd" clip-rule="evenodd" d="M249.286 361.345L248.438 353.938L255.883 350.477L256.655 371.692L227.59 371.642C233.518 365.485 249.286 361.345 249.286 361.345ZM292.558 351.914L300.796 352.093L300.713 361.523C300.713 361.523 308.66 362.903 311.414 371.692H290.751L291.647 361.102L292.558 351.914Z" fill="#0D0B6D"/>
<path fill-rule="evenodd" clip-rule="evenodd" d="M291.666 352.437L299.701 349.609L300.777 361.101L291.711 361.521L291.666 352.437ZM248.245 355.195L256.055 352.087L256.295 361.051L248.312 361.344L248.245 355.195Z" fill="#F6CBBA"/>
<path d="M302.566 353.975C302.198 342.485 299.819 269.901 297.375 226.718C295.681 196.787 283.005 180.308 280.626 177.461H250.424C250.369 177.843 246.304 206.661 245.56 266.961C244.892 320.962 245.58 350.48 245.666 353.951L245.667 353.953L244.702 353.951L244.696 358.6L260.335 358.625L260.341 353.976L259.802 353.975L259.802 353.975L267.744 259.476L270.123 231.193L288.179 353.951L288.18 353.952L287.399 353.95L287.671 358.599L303.863 358.626L303.591 353.977L302.566 353.975L302.566 353.975Z" fill="#2F2F3D"/>
<path opacity="0.398065" fill-rule="evenodd" clip-rule="evenodd" d="M270.121 231.195L266.872 203.527L267.743 259.476L270.121 231.195Z" fill="#0A0A0F"/>
</g>
<path d="M236.442 99.6956C236.436 99.9257 236.433 100.157 236.433 100.388C236.432 100.554 236.432 100.717 236.436 100.883L236.432 100.883L236.424 106.214L236.366 145.385L288.99 145.463L289.056 100.962L288.993 100.962C289.036 100.353 289.058 99.7385 289.059 99.1189C289.068 93.1436 287.09 87.6299 283.749 83.2047C289.838 81.6391 294.342 76.1101 294.352 69.5231C294.363 61.7103 288.048 55.3671 280.246 55.3555C272.444 55.3438 266.11 61.6679 266.098 69.4807C266.096 70.696 266.248 71.8758 266.534 73.0017C265.31 72.825 264.059 72.7327 262.786 72.7308C248.254 72.7089 236.457 84.4883 236.435 99.0405C236.434 99.2595 236.437 99.4779 236.442 99.6956Z" fill="#111828"/>
<path d="M262.963 99.0417C262.53 99.1783 262.082 99.2952 261.622 99.3907C261.25 99.4702 260.871 99.5338 260.483 99.5816C259.859 99.665 259.216 99.7042 258.563 99.7031C254.422 99.697 250.809 98.0232 248.874 95.5391C248.772 95.935 248.655 96.3245 248.524 96.7065C248.452 96.9009 248.381 97.1027 248.298 97.2967C247.78 98.6041 247.089 99.8157 246.256 100.897C245.095 102.4 243.655 103.653 242.021 104.566C242.755 109.823 244.555 116.894 248.787 119.714C251.117 121.265 255.352 121.456 258.959 121.248L259.788 131.511C259.788 131.511 265.644 128.953 268.997 127.058C269.575 126.733 270.077 126.425 270.461 126.153C270.398 125.549 270.253 124.142 270.07 122.386V122.379C269.738 119.215 269.286 114.914 268.99 112.079C270.966 109.079 276.348 108.404 276.355 104.184C276.355 102.918 275.618 100.73 272.893 100.727C269.237 100.72 269.755 105.11 269.755 105.11C267.684 105.917 265.217 102.775 262.963 99.0417Z" fill="#F6CBBA"/>
<path opacity="0.39" fill-rule="evenodd" clip-rule="evenodd" d="M249.035 106.43L246.423 112.77L249.453 112.71L249.035 106.43Z" fill="#111828"/>
<path fill-rule="evenodd" clip-rule="evenodd" d="M251.818 106.705C251.883 107.971 252.627 108.958 253.479 108.909C254.332 108.86 254.971 107.793 254.906 106.526C254.84 105.26 254.097 104.273 253.244 104.322C252.391 104.371 251.753 105.438 251.818 106.705Z" fill="#111828"/>
<path fill-rule="evenodd" clip-rule="evenodd" d="M243.81 106.502C243.875 107.768 244.619 108.755 245.472 108.706C246.324 108.657 246.963 107.59 246.898 106.324C246.833 105.057 246.089 104.07 245.236 104.119C244.383 104.168 243.745 105.235 243.81 106.502Z" fill="#111828"/>
<path d="M250.2 115.744C250.2 115.744 252.174 116.383 254.152 114.18" stroke="#111828" stroke-width="2"/>
<path opacity="0.401344" fill-rule="evenodd" clip-rule="evenodd" d="M258.96 121.25C258.96 121.25 263.523 121.385 265.469 120.32L259.202 124.26L258.96 121.25Z" fill="black"/>
<path fill-rule="evenodd" clip-rule="evenodd" d="M275.647 178.243L278.086 178.207C278.086 178.207 278.082 178.169 278.079 178.087C277.239 178.147 276.427 178.196 275.647 178.243Z" fill="#C83820"/>
<path d="M225.954 204.708L234.005 205.719L246.972 185.41L247.445 178.66L267.199 178.366L275.63 178.243H275.648C276.428 178.196 277.24 178.147 278.08 178.087C288.7 177.345 303.414 175.277 304.423 169.551C306.255 159.181 292.399 139.057 290.761 136.724C290.659 136.579 290.606 136.502 290.606 136.502C288.284 133.179 285.947 130.596 283.766 129.221C279.523 126.545 275.546 125.958 271.766 125.969L270.753 118.621L255.333 120.752L256.173 126.86C251.645 127.294 248.564 128.181 245.68 130.832C236.422 139.343 235.741 171.22 235.741 171.22L225.954 204.708Z" fill="#23A8B3"/>
<path fill-rule="evenodd" clip-rule="evenodd" d="M267.197 178.367V178.508C267.197 178.508 270.734 178.516 275.629 178.243L267.197 178.367Z" fill="#C83820"/>
<path opacity="0.201149" d="M247.727 178.579C246.594 164.179 238.757 161.134 244.404 144.984" stroke="black"/>
<path fill-rule="evenodd" clip-rule="evenodd" d="M234.394 196.394L263.843 192.995C264.807 192.883 265.442 191.934 265.178 190.999L253.542 149.831C253.332 149.087 252.614 148.606 251.847 148.694L222.398 152.093C221.434 152.204 220.799 153.154 221.063 154.089L232.699 195.257C232.909 196.001 233.627 196.483 234.394 196.394Z" fill="#384152"/>
<path d="M260.548 181.007C260.492 181.022 260.435 181.037 260.377 181.053C258.331 181.612 256.24 181.951 253.332 181.567C251.461 181.322 249.852 181.002 249.87 180.703C249.922 179.947 250.83 179.778 250.83 179.778L252.577 179.863L254.258 179.763C254.258 179.763 246.536 178.3 246.536 178.074C246.56 177.276 247.828 176.953 247.828 176.953C247.828 176.953 245.172 176.53 245.203 176.107C245.275 175.031 246.461 174.949 246.461 174.949C246.461 174.949 246.132 174.665 246.165 174.402C246.295 173.342 248.184 173.166 249.083 173.037C249.083 173.037 252.143 172.995 253.054 172.768C255.451 172.168 256.877 171.633 257.772 171.186L251.792 150.03C251.582 149.286 250.864 148.805 250.097 148.893L220.648 152.293C219.684 152.404 219.049 153.353 219.313 154.288L230.949 195.456C231.159 196.2 231.877 196.682 232.644 196.593L262.093 193.194C263.057 193.083 263.692 192.133 263.428 191.198L260.548 181.007Z" fill="#6B7380"/>
<path fill-rule="evenodd" clip-rule="evenodd" d="M246.535 178.075C246.559 177.278 247.827 176.954 247.827 176.954C247.827 176.954 245.172 176.531 245.202 176.108C245.274 175.033 246.46 174.951 246.46 174.951C246.46 174.951 246.131 174.667 246.164 174.404C246.284 173.422 247.913 173.199 248.868 173.068C248.944 173.058 249.016 173.048 249.082 173.038C249.082 173.038 252.142 172.996 253.053 172.769C257.598 171.633 258.654 170.727 259.212 170.216C259.229 170.2 259.245 170.185 259.261 170.17C259.307 170.128 259.35 170.089 259.393 170.053C259.362 170.019 259.326 169.962 259.289 169.903C259.236 169.819 259.181 169.731 259.13 169.694L258.353 166.844C258.922 166.905 259.478 166.925 260.028 166.944C260.801 166.97 261.564 166.997 262.338 167.14C264.447 167.529 265.696 168.019 265.696 168.019L268.388 168.941L270.34 176.175C269.601 176.833 267.83 178.133 266.628 178.788C264.309 180.053 263.287 180.311 261.72 180.706C261.456 180.772 261.177 180.842 260.874 180.922C260.84 180.931 260.805 180.94 260.77 180.949C260.643 180.982 260.512 181.017 260.377 181.055C258.331 181.614 256.239 181.952 253.331 181.568C251.46 181.323 249.852 181.003 249.87 180.704C249.921 179.949 250.829 179.78 250.829 179.78L252.576 179.864L254.257 179.764C254.257 179.764 246.535 178.302 246.535 178.075ZM221.662 210.264C221.99 209.618 224.244 206.907 226.095 204.726L233.801 205.693C234.683 210.905 231.017 218.353 231.017 218.353C231.017 218.353 232.924 217.188 233.303 218.207C233.472 218.66 233.855 222.282 226.711 222.526C225.953 222.552 224.128 221.007 224.128 221.007C224.128 221.007 225.459 223.551 223.422 224.051C223.422 224.051 220.139 219.125 220.089 218.029C220.039 216.933 221.092 211.385 221.662 210.264Z" fill="#F6CBBA"/>
<path opacity="0.148065" d="M229.559 208.414C229.559 208.414 228.556 212.206 225.116 213.388C223.913 213.801 224.213 218.678 221.265 218.095" stroke="black"/>
<path fill-rule="evenodd" clip-rule="evenodd" d="M248.799 152.73C249.031 153.459 249.526 153.953 249.905 153.833C250.284 153.712 250.402 153.023 250.171 152.293C249.939 151.563 249.444 151.069 249.065 151.19C248.686 151.311 248.568 152 248.799 152.73Z" fill="#384152"/>
<path opacity="0.200498" d="M278.462 147.84L285.895 160.165L267.413 167.488" stroke="black"/>
</svg>
