<svg width="230" height="249" viewBox="0 0 230 249" fill="none" xmlns="http://www.w3.org/2000/svg">
<path d="M130.866 56.1028C130.866 59.276 130.539 62.3741 129.914 65.3638C125.684 85.7203 107.775 92.667 86.3209 92.667C61.7233 92.667 41.7793 80.9043 41.7793 56.1028C41.7793 31.3014 61.7233 11.1992 86.3209 11.1992C103.233 11.1992 117.945 20.6978 125.489 34.6955C128.918 41.0585 130.866 48.3513 130.866 56.1028Z" fill="black"/>
<mask id="mask0_120_19798" style="mask-type:luminance" maskUnits="userSpaceOnUse" x="41" y="11" width="90" height="82">
<path d="M130.866 56.1028C130.866 59.276 130.539 62.3741 129.914 65.3638C125.684 85.7203 107.775 92.667 86.3209 92.667C61.7233 92.667 41.7793 80.9043 41.7793 56.1028C41.7793 31.3014 61.7233 11.1992 86.3209 11.1992C103.233 11.1992 117.945 20.6978 125.489 34.6955C128.918 41.0585 130.866 48.3513 130.866 56.1028Z" fill="white"/>
</mask>
<g mask="url(#mask0_120_19798)">
</g>
<path fill-rule="evenodd" clip-rule="evenodd" d="M93.9597 85.979C93.9597 85.979 88.6114 86.1383 86.332 84.8828L93.6756 89.5312L93.9597 85.979Z" fill="#CF3E83"/>
<path d="M92.1711 51.8936C97.3798 56.4106 105.089 60.611 114.139 63.4668C113.563 69.6483 111.65 80.3024 105.879 84.1724C103.153 86 98.1882 86.2251 93.9591 85.9791L92.9892 98.0892L80.4184 93.126C80.4184 93.126 83.5561 78.4077 81.876 75.7029C79.6198 72.0589 73.5832 70.8848 73.5762 65.849C73.5737 64.3575 74.4385 61.7752 77.632 61.7702C81.9186 61.7639 81.3077 66.941 81.3077 66.941C85.2509 68.4874 89.2702 57.8948 92.1711 51.8936V51.8936Z" fill="#88512E"/>
<path opacity="0.39" fill-rule="evenodd" clip-rule="evenodd" d="M105.586 66.9316L108.647 74.4121L105.096 74.3404L105.586 66.9316Z" fill="#111828"/>
<path fill-rule="evenodd" clip-rule="evenodd" d="M102.327 67.2557C102.251 68.7501 101.379 69.9143 100.38 69.8563C99.3806 69.7984 98.6323 68.5399 98.7085 67.0455C98.785 65.5511 99.6568 64.3865 100.656 64.4445C101.655 64.5028 102.404 65.7613 102.327 67.2557Z" fill="#1D1D23"/>
<path fill-rule="evenodd" clip-rule="evenodd" d="M111.71 67.017C111.633 68.5114 110.762 69.6756 109.762 69.6177C108.763 69.5597 108.015 68.3013 108.091 66.8069C108.168 65.3124 109.039 64.1478 110.039 64.2062C111.038 64.2642 111.786 65.5226 111.71 67.017Z" fill="#1D1D23"/>
<path d="M104.224 77.9231C104.224 77.9231 101.91 78.6757 99.5918 76.0771" stroke="#202938" stroke-width="2"/>
<path opacity="0.399019" fill-rule="evenodd" clip-rule="evenodd" d="M93.95 85.9786C93.95 85.9786 88.6016 86.1379 86.3223 84.8828L93.6658 89.5308L93.95 85.9786Z" fill="black"/>
<path fill-rule="evenodd" clip-rule="evenodd" d="M100.244 99.6753C97.7554 95.4313 94.4242 93.0579 94.4242 93.0579L79.2002 92.3174C79.2002 92.3174 80.4969 95.6865 81.8697 100.019C84.5833 108.583 91.0207 110.508 96.6296 110.499C101.869 110.49 103.649 105.481 100.244 99.6753ZM137.748 124.557C137.475 121.86 137.368 118.633 138.218 117.477C139.778 115.357 147.489 108.946 147.489 108.946L147.9 114.296L149.726 108.015C149.726 108.015 151.747 108.619 153.704 109.651C155.115 110.395 156.467 111.404 157.316 112.038C157.518 112.189 157.692 112.318 157.83 112.417C158.867 113.161 155.853 124.593 153.704 126.65C152.229 128.062 147.879 129.157 145.298 129.705C140.367 137.732 127.227 157.788 119.967 156.134C112.426 154.415 105.429 127.838 105.429 127.838L118.149 121.591L123.688 138.801L137.748 124.557ZM51.3097 182.8L54.4058 190.782C54.4058 190.782 54.8761 192.838 55.1389 195.266L55.1738 195.591C55.4136 197.833 55.5745 199.338 57.0975 202.817C58.2093 205.356 54.6115 204.598 53.5912 203.179C53.2147 202.656 52.9049 201.551 52.5828 200.403C52.0048 198.343 51.3875 196.143 50.2754 196.905C48.5435 198.092 48.0217 204.128 48.4091 209.828C48.4698 210.723 47.8532 211.454 47.4123 211.712C46.6972 212.129 45.6536 208.602 45.6536 208.602C45.6536 208.602 45.2782 209.841 44.1394 209.324C43.7363 209.14 42.5352 206.741 42.5352 206.741C42.5352 206.741 41.6052 205.558 41.1161 204.237C40.2526 201.906 39.5477 197.579 39.7139 196.307C40.1065 193.31 40.9898 188.252 42.1509 185.451C41.4654 178.251 38.8376 149.344 40.2872 143.853C41.9463 137.57 45.1973 129.056 45.1973 129.056L57.6717 136.452L52.324 147.962L51.3097 182.8Z" fill="#86522E"/>
<path fill-rule="evenodd" clip-rule="evenodd" d="M153.943 109.813C152.794 109.149 151.701 108.652 151.165 108.778C150.228 108.999 151.944 111.477 153.195 113.109L153.181 113.171C151.161 113.991 148.514 115.206 148.088 116.095C147.791 116.716 148.952 116.919 150.39 116.946C149.067 117.586 147.912 118.278 147.643 118.84C147.299 119.559 148.91 119.717 150.643 119.692C149.113 120.396 147.679 121.196 147.375 121.83C146.988 122.639 149.075 122.739 151.026 122.665L150.525 124.875C150.371 125.552 149.759 126.023 149.07 125.992L141.583 125.662C140.692 125.623 140.054 124.779 140.253 123.903L145.558 100.528C145.712 99.8505 146.324 99.3801 147.012 99.4106L154.5 99.7404C155.391 99.78 156.028 100.624 155.83 101.5L153.943 109.813Z" fill="#384152"/>
<path d="M155.47 110.762C153.881 109.717 151.94 108.596 151.166 108.779C150.22 109.001 151.974 111.522 153.228 113.153C151.203 113.972 148.517 115.199 148.089 116.096C147.791 116.717 148.952 116.919 150.39 116.947C149.067 117.587 147.912 118.278 147.643 118.84C147.299 119.559 148.91 119.718 150.643 119.692C149.113 120.396 147.679 121.196 147.376 121.83C146.863 122.902 150.688 122.729 152.793 122.557L152.249 124.951C152.096 125.628 151.484 126.099 150.795 126.068L143.308 125.738C142.417 125.699 141.779 124.855 141.978 123.979L147.283 100.604C147.437 99.9266 148.048 99.4567 148.737 99.4867L156.225 99.8165C157.115 99.8561 157.753 100.7 157.554 101.576L155.47 110.762Z" fill="#6B7380"/>
<path fill-rule="evenodd" clip-rule="evenodd" d="M149.213 102.583C149.038 103.349 148.591 103.894 148.212 103.798C147.834 103.703 147.669 103.004 147.843 102.238C148.017 101.472 148.466 100.928 148.844 101.024C149.222 101.119 149.388 101.817 149.213 102.583Z" fill="#384152"/>
<path fill-rule="evenodd" clip-rule="evenodd" d="M148.338 106.547C148.164 107.313 147.716 107.857 147.337 107.762C146.959 107.666 146.794 106.968 146.968 106.202C147.142 105.436 147.59 104.892 147.969 104.987C148.347 105.083 148.513 105.781 148.338 106.547Z" fill="#384152"/>
<path d="M84.218 92.5613L79.2004 92.3172C79.2004 92.3172 80.4971 95.6864 81.8698 100.019C84.5835 108.583 91.0209 110.508 96.6298 110.498C101.869 110.49 103.649 105.481 100.244 99.6751C98.0522 95.9371 95.2067 93.6503 94.5594 93.1581C101.175 93.609 105.294 94.4464 109.109 98.0535C116.372 104.921 122.254 117.582 124.672 130.091L111.399 136.062L106.672 154.478L71.935 153.945C71.935 153.945 72.239 150.571 71.49 145.697C70.5143 139.322 66.992 134.564 66.992 134.564L63.4983 139.918L41.7695 127.004C48.8831 113.927 58.8055 100.443 65.4211 96.1521C70.0948 93.1198 74.3739 92.3586 78.5552 92.3172C80.4566 92.2984 82.3657 92.4288 84.218 92.5613Z" fill="white"/>
<path opacity="0.202962" d="M106.826 154.799C108.153 137.81 116.924 133.801 110.306 114.748" stroke="black"/>
<path opacity="0.202055" d="M94.4252 93.0579C94.4252 93.0579 97.7563 95.4313 100.245 99.6753C103.65 105.481 101.87 110.49 96.6305 110.499C91.0216 110.508 84.5842 108.583 81.8706 100.019C80.4978 95.6865 79.2012 92.3174 79.2012 92.3174" stroke="black"/>
<path opacity="0.202962" d="M75.9134 122.671L67.8535 134.982" stroke="black"/>
<path d="M46.358 362.046C46.7896 348.49 49.5774 262.86 52.4417 211.914C54.4266 176.603 69.2811 157.162 72.0688 153.803H107.462C107.527 154.254 112.291 188.252 113.163 259.39C113.945 323.099 113.138 357.922 113.038 362.017L113.038 362.02L114.168 362.018L114.175 367.502L95.8476 367.532L95.8403 362.047L96.4722 362.046L96.4722 362.046L87.1654 250.56L84.3776 217.193L63.2175 362.017L63.2173 362.018L64.1326 362.017L63.813 367.501L44.8379 367.532L45.1574 362.048L46.3579 362.046L46.358 362.046Z" fill="#FCCB2D"/>
<path opacity="0.398065" fill-rule="evenodd" clip-rule="evenodd" d="M84.377 217.194L88.185 184.554L87.1635 250.56L84.377 217.194Z" fill="#111828"/>
</svg>
