<svg width="205" height="325" viewBox="0 0 205 325" fill="none" xmlns="http://www.w3.org/2000/svg">
<path fill-rule="evenodd" clip-rule="evenodd" d="M229.802 345.091L217.605 333.978L221.842 322.737L247.947 341.995L226.801 378.669C226.801 378.669 226.121 369.556 227.227 359.46C227.991 352.486 229.802 345.091 229.802 345.091ZM113.133 369.674L115.918 360.752L127.713 361.371L117.897 385.874L80.1907 364.17C91.3801 360.805 113.133 369.674 113.133 369.674Z" fill="#0D0B6D"/>
<path fill-rule="evenodd" clip-rule="evenodd" d="M220.679 336.81L222.02 322.727L237.045 334.024L229.802 345.091L220.679 336.81ZM115.427 362.259L127.088 363.303L122.783 373.673L113.132 369.674L115.427 362.259Z" fill="#E576C6"/>
<path d="M174.68 229.996L190.167 179.916H150.421L129.5 179.916C129.461 192.166 130.912 212.344 138.593 235.319L114.207 349.53C113.903 350.964 114.416 352.396 115.457 353.323L111.751 366.406L126.897 370.791L130.505 358.599L130.599 358.63C132.747 359.336 135.059 358.151 135.72 356.01L159.814 278.092C162.531 282.075 165.492 286.05 168.71 289.998C189.085 314.99 201.783 328.469 208.314 334.954C210.646 337.272 214.273 337.386 216.732 335.491L226.046 343.117L235.293 330.468L226.089 322.932C227.564 320.58 227.321 317.521 225.436 315.434C216.052 305.022 189.642 273.225 174.68 229.996L174.68 229.996Z" fill="#F17E2C"/>
<mask id="mask0_120_19890" style="mask-type:luminance" maskUnits="userSpaceOnUse" x="111" y="179" width="125" height="192">
<path d="M174.68 229.996L190.167 179.916H150.421L129.5 179.916C129.461 192.166 130.912 212.344 138.593 235.319L114.207 349.53C113.903 350.964 114.416 352.396 115.457 353.323L111.751 366.406L126.897 370.791L130.505 358.599L130.599 358.63C132.747 359.336 135.059 358.151 135.72 356.01L159.814 278.092C162.531 282.075 165.492 286.05 168.71 289.998C189.085 314.99 201.783 328.469 208.314 334.954C210.646 337.272 214.273 337.386 216.732 335.491L226.046 343.117L235.293 330.468L226.089 322.932C227.564 320.58 227.321 317.521 225.436 315.434C216.052 305.022 189.642 273.225 174.68 229.996L174.68 229.996Z" fill="white"/>
</mask>
<g mask="url(#mask0_120_19890)">
</g>
<path opacity="0.0987491" fill-rule="evenodd" clip-rule="evenodd" d="M130.504 358.599L130.598 358.63C132.746 359.336 135.058 358.151 135.719 356.01L159.813 278.092L174.679 229.997L190.166 179.916H150.42L138.592 235.319L114.206 349.53C113.903 350.964 114.415 352.396 115.456 353.323L111.75 366.406L126.896 370.791L130.504 358.599Z" fill="white"/>
<path d="M122.38 355.57L128.759 357.822L154.356 269.574L170.148 215.134L180.361 179.916H167.415L165.139 188.797L147.6 257.201L122.38 355.57Z" fill="#EFEFEF"/>
</svg>
