<svg width="212" height="347" viewBox="0 0 212 347" fill="none" xmlns="http://www.w3.org/2000/svg">
<path d="M125.996 65.6154C125.925 66.0613 125.889 66.5195 125.891 66.9866C125.891 66.9985 125.891 67.0104 125.892 67.0224C121.99 71.384 119.951 77.4508 120.848 83.7391C122.426 94.7968 132.509 102.519 143.254 100.898L162.091 98.0581C172.837 96.4379 180.338 86.0653 178.759 75.0076C177.648 67.2172 172.315 61.0825 165.503 58.704C167.337 55.8278 168.198 52.2808 167.677 48.6296C166.722 41.9357 161.414 36.9491 155.146 36.2687C155.649 34.5292 155.801 32.6555 155.529 30.7498L155.529 30.7498C154.526 23.7195 148.115 18.81 141.283 19.8403C139.546 20.1022 137.943 20.7238 136.533 21.6209C132.565 19.2984 127.866 17.9667 122.835 17.9943C108.711 18.0719 97.3205 28.8325 97.3929 42.0291C97.4653 55.2257 108.973 65.8607 123.097 65.7832C124.077 65.7778 125.045 65.721 125.996 65.6154Z" fill="#111828"/>
<path fill-rule="evenodd" clip-rule="evenodd" d="M119.227 70.5234C119.227 70.5234 123.91 70.64 125.9 69.5073L119.493 73.6968L119.227 70.5234Z" fill="#CF3E83"/>
<path d="M130.55 59.537C132.982 57.3274 136.991 56.229 136.976 52.4342C136.971 51.1012 136.201 48.797 133.404 48.8083C129.86 48.8221 130.163 52.9466 130.207 53.4057L130.211 53.429L130.21 53.4293C130.211 53.441 130.212 53.447 130.212 53.447C129.81 53.6105 129.406 53.6264 129.002 53.5182C126.129 53.5675 118.824 52.7109 114.703 43.3861C113.85 44.3191 112.889 45.1395 111.843 45.8324C108.827 47.8258 105.1 48.7636 101.28 48.3281C101.541 53.0475 102.952 65.023 108.781 68.9657C111.177 70.5863 115.525 70.7637 119.227 70.5235L120.136 81.3423C120.136 81.3423 131.419 76.207 131.878 74.8206C128.458 73.9485 125.913 70.7782 125.892 66.9871C125.874 63.673 127.79 60.8122 130.55 59.537Z" fill="#643229"/>
<path opacity="0.39" fill-rule="evenodd" clip-rule="evenodd" d="M108.954 53.5555L106.31 60.2558L109.419 60.1747L108.954 53.5555Z" fill="#111828"/>
<path fill-rule="evenodd" clip-rule="evenodd" d="M111.807 53.8296C111.882 55.1649 112.65 56.2012 113.525 56.1446C114.4 56.088 115.049 54.9597 114.975 53.6244C114.901 52.2892 114.132 51.2529 113.257 51.3095C112.382 51.3661 111.733 52.4947 111.807 53.8296Z" fill="black"/>
<path fill-rule="evenodd" clip-rule="evenodd" d="M103.591 53.6614C103.665 54.9967 104.434 56.033 105.308 55.9764C106.183 55.9198 106.832 54.7915 106.758 53.4562C106.684 52.1209 105.915 51.0843 105.04 51.1409C104.166 51.1975 103.517 52.3262 103.591 53.6614Z" fill="black"/>
<path d="M110.199 63.3727C110.199 63.3727 112.229 64.0347 114.246 61.7007" stroke="#111828" stroke-width="3"/>
<path opacity="0.401762" fill-rule="evenodd" clip-rule="evenodd" d="M119.235 70.5234C119.235 70.5234 123.918 70.64 125.908 69.507L119.501 73.6964L119.235 70.5234Z" fill="black"/>
<path fill-rule="evenodd" clip-rule="evenodd" d="M107.884 325.266L106.971 317.461L114.591 313.769L115.506 336.135L85.6815 336.245C91.7282 329.72 107.884 325.266 107.884 325.266ZM152.232 315.078L160.686 315.221L160.655 325.164C160.655 325.164 168.818 326.574 171.695 335.827L150.492 335.943L151.35 324.771L152.232 315.078Z" fill="#0D0B6D"/>
<path fill-rule="evenodd" clip-rule="evenodd" d="M151.317 315.636L159.546 312.609L160.717 324.72L151.416 325.214L151.317 315.636ZM106.778 318.789L114.774 315.467L115.072 324.917L106.883 325.272L106.778 318.789Z" fill="#643229"/>
<path d="M162.513 317.195C162.068 305.081 159.207 228.563 156.449 183.044C154.538 151.494 141.436 134.189 138.978 131.201L107.987 131.371C107.933 131.774 103.928 162.183 103.514 225.767C103.141 282.711 104.018 313.83 104.127 317.49L104.127 317.492L103.137 317.496L103.157 322.398L119.206 322.336L119.185 317.434L118.632 317.436L118.632 317.436L126.234 217.751L128.511 187.915L147.75 317.251L147.75 317.251L146.949 317.254L147.255 322.155L163.871 322.091L163.564 317.191L162.513 317.195L162.513 317.195Z" fill="#FCCB2D"/>
<path opacity="0.398065" fill-rule="evenodd" clip-rule="evenodd" d="M128.512 187.916L125.017 158.762L126.235 217.75L128.512 187.916Z" fill="#0A0A0F"/>
<path fill-rule="evenodd" clip-rule="evenodd" d="M71.9048 81.8741L72.0488 79.0179C72.0488 79.0179 72.0347 77.0311 71.7738 74.8877C71.7083 74.3499 71.5679 73.7879 71.418 73.1878C70.9703 71.3959 70.4377 69.2639 71.5612 66.4213C73.061 62.63 69.4401 65.2618 68.645 67.0656C68.3377 67.7628 68.2529 68.8145 68.1688 69.8577C68.0714 71.0643 67.9751 72.2595 67.5364 72.8812C66.8379 72.4936 66.3719 71.9862 66.3719 71.9862L58.4785 61.5619C58.2242 61.2113 57.7572 61.1086 57.3846 61.3179L56.9643 61.5571C56.5216 61.8095 56.3843 62.3958 56.6709 62.8219C57.219 63.6405 58.1755 65.0212 59.1752 66.4643L59.1754 66.4645C60.9896 69.0833 62.9462 71.9079 62.8641 71.9528L62.6579 72.2139L53.3999 62.2707C53.1106 61.9401 52.6279 61.8835 52.2747 62.1387L51.7242 62.5365C51.3233 62.8249 51.2402 63.3978 51.5426 63.7909C52.5311 65.0905 54.9759 67.9036 57.0112 70.2455L57.0114 70.2457C58.7724 72.272 60.2268 73.9455 60.1663 73.9809L59.8931 74.2554L51.2828 66.5095C50.9774 66.1625 50.4597 66.1259 50.1099 66.4206L49.6934 66.7748C49.3277 67.0828 49.2764 67.639 49.5788 68.0124L57.7133 75.8037L57.4822 76.1832L50.4297 71.1395C50.1055 70.8452 49.6199 70.8478 49.2957 71.1424L49.1018 71.3244C48.7585 71.6421 48.7232 72.1851 49.0255 72.5485C49.5069 73.1286 50.4575 73.8889 51.5907 74.7952C52.8949 75.8382 54.4409 77.0747 55.7919 78.4525C56.536 79.2116 57.1368 79.9564 57.7455 80.7109C58.7398 81.9435 59.7553 83.2023 61.4512 84.5928C62.4633 85.426 63.3779 85.9087 64.2483 86.368C64.3714 86.433 64.4936 86.4975 64.615 86.5624L71.9048 81.8741ZM135.026 74.9764C135.026 74.9764 129.612 74.9953 125.705 75.0032C121.798 75.0108 116.894 76.7388 116.894 76.7388C116.894 76.7388 114.371 82.699 123.248 82.1118C132.126 81.5239 135.026 74.9764 135.026 74.9764ZM164.768 98.8761C164.768 98.8761 173.508 112.297 173.353 119.788C173.169 128.62 146.026 150.469 146.026 150.469L138.927 144.549L155.955 119.681L149.637 105.95L164.768 98.8761Z" fill="#643229"/>
<path d="M140.922 133.739L136.734 139.625L149.509 151.027C149.509 151.027 172.74 133.198 173.384 119.315C173.795 110.473 166.255 97.8957 166.255 97.8957C166.255 97.8957 156.794 82.4334 145.926 77.2572C143.696 76.195 138.298 75.3283 135.027 74.9765C134.025 74.8687 134.626 75.2696 134.286 75.9556C133.93 76.6723 132.842 77.7373 132.089 78.533C130.523 80.1892 127.426 81.4538 125.76 81.7184C124.49 81.92 122.035 82.2354 120.853 82.0776C119.671 81.9198 118.383 81.3747 118.038 81.0485C117.693 80.7224 117.18 80.3148 116.912 79.684C116.644 79.0532 116.658 79.2343 116.655 78.6511C116.652 78.0678 116.681 78.1539 116.735 77.8761C116.788 77.5982 116.787 77.4314 116.819 77.2878C116.96 76.6523 116.896 76.7389 116.896 76.7389C110.508 78.7746 107.271 79.5328 104.957 82.456L87.2142 95.4954L74.9357 79.0978L59.2695 90.1153C59.2695 90.1153 73.3411 116.895 83.4486 119.809C91.5906 122.156 99.7847 114.673 102.664 111.673L99.3229 129.771C98.7886 132.896 101.435 134.063 103.787 133.939L140.922 133.739Z" fill="#3EB62B"/>
<path opacity="0.201242" fill-rule="evenodd" clip-rule="evenodd" d="M102.718 111.684L104.799 102.962L99.1154 114.897L102.718 111.684Z" fill="black"/>
<path opacity="0.200591" d="M142.488 131.631L152.336 117.001L140.241 98.2407" stroke="black"/>
</svg>
