<svg width="387" height="397" viewBox="0 0 387 397" fill="none" xmlns="http://www.w3.org/2000/svg">
<mask id="mask0_141_34786" style="mask-type:alpha" maskUnits="userSpaceOnUse" x="57" y="35" width="287" height="325">
<path d="M240.426 40.1685C279.668 53.3423 309.926 95.7567 327.561 141.808C345.195 187.86 349.878 237.413 331.647 273.81C313.185 310.304 271.809 333.642 229.7 347.424C187.919 361.342 145.734 365.839 116.044 349.491C86.1233 333.239 68.6985 296.142 61.6811 261.814C54.4322 227.583 57.4568 196.452 66.2689 162.899C75.3124 129.25 90.1071 93.7422 121.733 67.9067C153.128 42.168 201.318 26.6646 240.426 40.1685Z" fill="#3EB62B"/>
</mask>
<g mask="url(#mask0_141_34786)">
<path fill-rule="evenodd" clip-rule="evenodd" d="M245.843 268.199V269.022C245.843 275.889 240.515 281.452 233.949 281.452H140.781C126.41 281.452 115.351 267.664 117.334 252.214L127.853 166.129C128.763 158.999 134.376 153.693 141.009 153.693H168.622C175.25 153.693 180.862 158.999 181.779 166.129L192.297 252.214C192.377 252.829 192.434 253.443 192.468 254.053L192.525 254.043C192.525 254.043 194.47 268.199 212.555 268.199H245.843Z" fill="#ECF8EA"/>
<path fill-rule="evenodd" clip-rule="evenodd" d="M175.891 377.412H183.954V281.119H175.891V377.412Z" fill="#D8F0D5"/>
<path fill-rule="evenodd" clip-rule="evenodd" d="M207.55 281.119L179.922 293.701L152.295 281.119H207.55Z" fill="#D8F0D5"/>
</g>
</svg>
