<svg width="381" height="397" viewBox="0 0 381 397" fill="none" xmlns="http://www.w3.org/2000/svg">
<path d="M234.426 40.1685C273.668 53.3423 303.926 95.7567 321.561 141.808C339.195 187.86 343.878 237.413 325.647 273.81C307.185 310.304 265.809 333.642 223.7 347.424C181.919 361.342 139.734 365.839 110.044 349.491C80.1233 333.239 62.6985 296.142 55.6811 261.814C48.4322 227.583 51.4568 196.452 60.2689 162.899C69.3124 129.25 84.1071 93.7422 115.733 67.9067C147.128 42.168 195.318 26.6646 234.426 40.1685Z" fill="#3EB62B"/>
<mask id="mask0_120_24260" style="mask-type:alpha" maskUnits="userSpaceOnUse" x="51" y="35" width="287" height="325">
<path d="M234.426 40.1685C273.668 53.3423 303.926 95.7567 321.561 141.808C339.195 187.86 343.878 237.413 325.647 273.81C307.185 310.304 265.809 333.642 223.7 347.424C181.919 361.342 139.734 365.839 110.044 349.491C80.1233 333.239 62.6985 296.142 55.6811 261.814C48.4322 227.583 51.4568 196.452 60.2689 162.899C69.3124 129.25 84.1071 93.7422 115.733 67.9067C147.128 42.168 195.318 26.6646 234.426 40.1685Z" fill="#3EB62B"/>
</mask>
<g mask="url(#mask0_120_24260)">
<path fill-rule="evenodd" clip-rule="evenodd" d="M362.802 380.09L350.605 368.977L354.842 357.736L380.947 376.994L359.801 413.668C359.801 413.668 359.121 404.555 360.227 394.459C360.991 387.485 362.802 380.09 362.802 380.09ZM246.133 404.673L248.918 395.751L260.713 396.37L250.897 420.873L213.191 399.169C224.38 395.804 246.133 404.673 246.133 404.673Z" fill="#0D0B6D"/>
<path fill-rule="evenodd" clip-rule="evenodd" d="M353.679 371.81L355.02 357.727L370.045 369.024L362.802 380.091L353.679 371.81ZM248.427 397.259L260.088 398.303L255.783 408.673L246.132 404.674L248.427 397.259Z" fill="#E576C6"/>
<path d="M307.68 264.996L323.167 214.916H283.421L262.5 214.916C262.461 227.166 263.912 247.344 271.593 270.319L247.207 384.53C246.903 385.964 247.416 387.396 248.457 388.323L244.751 401.406L259.897 405.791L263.505 393.599L263.599 393.63C265.747 394.336 268.059 393.151 268.72 391.01L292.814 313.092C295.531 317.075 298.492 321.05 301.71 324.998C322.085 349.99 334.783 363.469 341.314 369.954C343.646 372.272 347.273 372.386 349.732 370.491L359.046 378.117L368.293 365.468L359.089 357.932C360.564 355.58 360.321 352.521 358.436 350.434C349.052 340.022 322.642 308.225 307.68 264.996L307.68 264.996Z" fill="#F17E2C"/>
<mask id="mask1_120_24260" style="mask-type:luminance" maskUnits="userSpaceOnUse" x="244" y="214" width="125" height="192">
<path d="M307.68 264.996L323.167 214.916H283.421L262.5 214.916C262.461 227.166 263.912 247.344 271.593 270.319L247.207 384.53C246.903 385.964 247.416 387.396 248.457 388.323L244.751 401.406L259.897 405.791L263.505 393.599L263.599 393.63C265.747 394.336 268.059 393.151 268.72 391.01L292.814 313.092C295.531 317.075 298.492 321.05 301.71 324.998C322.085 349.99 334.783 363.469 341.314 369.954C343.646 372.272 347.273 372.386 349.732 370.491L359.046 378.117L368.293 365.468L359.089 357.932C360.564 355.58 360.321 352.521 358.436 350.434C349.052 340.022 322.642 308.225 307.68 264.996L307.68 264.996Z" fill="white"/>
</mask>
<g mask="url(#mask1_120_24260)">
</g>
<path opacity="0.0987491" fill-rule="evenodd" clip-rule="evenodd" d="M263.504 393.599L263.598 393.63C265.746 394.336 268.058 393.151 268.719 391.01L292.813 313.092L307.679 264.997L323.166 214.916H283.42L271.592 270.319L247.206 384.53C246.903 385.964 247.415 387.396 248.456 388.323L244.75 401.406L259.896 405.791L263.504 393.599Z" fill="white"/>
<path d="M255.38 390.57L261.759 392.822L287.356 304.574L303.148 250.134L313.361 214.916H300.415L298.139 223.797L280.6 292.201L255.38 390.57Z" fill="#EFEFEF"/>
<path d="M181.866 167.103C181.866 170.276 181.539 173.374 180.914 176.364C176.684 196.72 158.775 203.667 137.321 203.667C112.723 203.667 92.7793 191.904 92.7793 167.103C92.7793 142.301 112.723 122.199 137.321 122.199C154.233 122.199 168.945 131.698 176.489 145.696C179.918 152.059 181.866 159.351 181.866 167.103Z" fill="black"/>
<mask id="mask2_120_24260" style="mask-type:luminance" maskUnits="userSpaceOnUse" x="92" y="122" width="90" height="82">
<path d="M181.866 167.103C181.866 170.276 181.539 173.374 180.914 176.364C176.684 196.72 158.775 203.667 137.321 203.667C112.723 203.667 92.7793 191.904 92.7793 167.103C92.7793 142.301 112.723 122.199 137.321 122.199C154.233 122.199 168.945 131.698 176.489 145.696C179.918 152.059 181.866 159.351 181.866 167.103Z" fill="white"/>
</mask>
<g mask="url(#mask2_120_24260)">
</g>
<path fill-rule="evenodd" clip-rule="evenodd" d="M144.96 196.979C144.96 196.979 139.611 197.138 137.332 195.883L144.676 200.531L144.96 196.979Z" fill="#CF3E83"/>
<path d="M143.171 162.893C148.38 167.41 156.089 171.61 165.139 174.466C164.563 180.647 162.65 191.301 156.879 195.171C154.153 196.999 149.188 197.224 144.959 196.978L143.989 209.088L131.418 204.125C131.418 204.125 134.556 189.407 132.876 186.702C130.62 183.058 124.583 181.884 124.576 176.848C124.574 175.357 125.439 172.774 128.632 172.769C132.919 172.763 132.308 177.94 132.308 177.94C136.251 179.486 140.27 168.894 143.171 162.893V162.893Z" fill="#88512E"/>
<path opacity="0.39" fill-rule="evenodd" clip-rule="evenodd" d="M156.586 177.932L159.647 185.412L156.096 185.34L156.586 177.932Z" fill="#111828"/>
<path fill-rule="evenodd" clip-rule="evenodd" d="M153.327 178.257C153.251 179.751 152.379 180.915 151.38 180.857C150.381 180.799 149.632 179.541 149.708 178.046C149.785 176.552 150.657 175.387 151.656 175.445C152.655 175.504 153.404 176.762 153.327 178.257Z" fill="#1D1D23"/>
<path fill-rule="evenodd" clip-rule="evenodd" d="M162.71 178.016C162.633 179.51 161.762 180.675 160.762 180.617C159.763 180.559 159.015 179.3 159.091 177.806C159.168 176.311 160.039 175.147 161.039 175.205C162.038 175.263 162.786 176.522 162.71 178.016Z" fill="#1D1D23"/>
<path d="M155.224 188.924C155.224 188.924 152.91 189.677 150.592 187.078" stroke="#202938" stroke-width="2"/>
<path opacity="0.399019" fill-rule="evenodd" clip-rule="evenodd" d="M144.95 196.979C144.95 196.979 139.602 197.138 137.322 195.883L144.666 200.531L144.95 196.979Z" fill="black"/>
<path fill-rule="evenodd" clip-rule="evenodd" d="M151.244 210.674C148.755 206.43 145.424 204.057 145.424 204.057L130.2 203.316C130.2 203.316 131.497 206.686 132.87 211.018C135.583 219.582 142.021 221.507 147.63 221.498C152.869 221.489 154.649 216.48 151.244 210.674ZM188.748 235.556C188.475 232.859 188.368 229.632 189.218 228.476C190.778 226.356 198.489 219.945 198.489 219.945L198.9 225.295L200.726 219.014C200.726 219.014 202.747 219.618 204.704 220.65C206.115 221.394 207.467 222.403 208.316 223.037C208.518 223.188 208.692 223.317 208.83 223.417C209.867 224.16 206.853 235.592 204.704 237.649C203.229 239.061 198.879 240.156 196.298 240.704C191.367 248.731 178.227 268.787 170.967 267.133C163.426 265.414 156.429 238.837 156.429 238.837L169.149 232.59L174.688 249.8L188.748 235.556ZM102.31 293.799L105.406 301.782C105.406 301.782 105.876 303.837 106.139 306.265L106.174 306.59C106.414 308.832 106.574 310.337 108.098 313.816C109.209 316.355 105.611 315.597 104.591 314.178C104.215 313.655 103.905 312.55 103.583 311.402C103.005 309.343 102.387 307.142 101.275 307.904C99.5435 309.091 99.0217 315.127 99.4091 320.827C99.4698 321.722 98.8532 322.453 98.4123 322.711C97.6972 323.128 96.6536 319.601 96.6536 319.601C96.6536 319.601 96.2782 320.84 95.1394 320.323C94.7363 320.139 93.5352 317.74 93.5352 317.74C93.5352 317.74 92.6052 316.557 92.1161 315.236C91.2526 312.905 90.5477 308.578 90.7139 307.306C91.1065 304.309 91.9898 299.252 93.1509 296.45C92.4654 289.25 89.8376 260.343 91.2872 254.852C92.9463 248.569 96.1973 240.055 96.1973 240.055L108.672 247.451L103.324 258.961L102.31 293.799Z" fill="#86522E"/>
<path fill-rule="evenodd" clip-rule="evenodd" d="M204.943 220.812C203.794 220.148 202.701 219.651 202.165 219.777C201.228 219.998 202.944 222.476 204.195 224.108L204.181 224.17C202.161 224.99 199.514 226.205 199.088 227.094C198.791 227.715 199.952 227.918 201.39 227.945C200.067 228.585 198.912 229.277 198.643 229.839C198.299 230.558 199.91 230.716 201.643 230.691C200.113 231.395 198.679 232.195 198.375 232.829C197.988 233.638 200.075 233.738 202.026 233.664L201.525 235.874C201.371 236.551 200.759 237.022 200.07 236.991L192.583 236.661C191.692 236.622 191.054 235.778 191.253 234.902L196.558 211.527C196.712 210.85 197.324 210.379 198.012 210.41L205.5 210.739C206.391 210.779 207.028 211.623 206.83 212.499L204.943 220.812Z" fill="#384152"/>
<path d="M206.47 221.761C204.881 220.716 202.94 219.595 202.166 219.778C201.22 220 202.974 222.521 204.228 224.152C202.203 224.971 199.517 226.198 199.089 227.095C198.791 227.716 199.952 227.918 201.39 227.946C200.067 228.586 198.912 229.277 198.643 229.839C198.299 230.558 199.91 230.717 201.643 230.691C200.113 231.395 198.679 232.195 198.376 232.83C197.863 233.901 201.688 233.728 203.793 233.556L203.249 235.95C203.096 236.627 202.484 237.098 201.795 237.067L194.308 236.737C193.417 236.698 192.779 235.854 192.978 234.978L198.283 211.603C198.437 210.926 199.048 210.456 199.737 210.486L207.225 210.816C208.115 210.855 208.753 211.699 208.554 212.575L206.47 221.761Z" fill="#6B7380"/>
<path fill-rule="evenodd" clip-rule="evenodd" d="M200.213 213.582C200.038 214.348 199.591 214.893 199.212 214.797C198.834 214.702 198.669 214.003 198.843 213.237C199.017 212.471 199.466 211.927 199.844 212.023C200.222 212.118 200.388 212.817 200.213 213.582Z" fill="#384152"/>
<path fill-rule="evenodd" clip-rule="evenodd" d="M199.338 217.547C199.164 218.313 198.716 218.857 198.337 218.762C197.959 218.666 197.794 217.968 197.968 217.202C198.142 216.436 198.59 215.892 198.969 215.987C199.347 216.083 199.513 216.781 199.338 217.547Z" fill="#384152"/>
<path d="M135.218 203.56L130.2 203.316C130.2 203.316 131.497 206.685 132.87 211.018C135.584 219.582 142.021 221.507 147.63 221.497C152.869 221.489 154.649 216.48 151.244 210.674C149.052 206.936 146.207 204.649 145.559 204.157C152.175 204.608 156.294 205.445 160.109 209.053C167.372 215.92 173.254 228.581 175.672 241.09L162.399 247.061L157.672 265.478L122.935 264.944C122.935 264.944 123.239 261.57 122.49 256.696C121.514 250.321 117.992 245.563 117.992 245.563L114.498 250.917L92.7695 238.003C99.8831 224.926 109.806 211.442 116.421 207.151C121.095 204.119 125.374 203.358 129.555 203.316C131.457 203.297 133.366 203.428 135.218 203.56Z" fill="white"/>
<path opacity="0.202962" d="M157.826 265.799C159.153 248.81 167.924 244.801 161.306 225.748" stroke="black"/>
<path opacity="0.202055" d="M145.425 204.057C145.425 204.057 148.756 206.43 151.245 210.674C154.65 216.48 152.87 221.489 147.63 221.498C142.022 221.507 135.584 219.582 132.871 211.018C131.498 206.686 130.201 203.316 130.201 203.316" stroke="black"/>
<path opacity="0.202962" d="M126.913 233.67L118.854 245.981" stroke="black"/>
<path d="M97.358 473.046C97.7896 459.49 100.577 373.86 103.442 322.914C105.427 287.603 120.281 268.162 123.069 264.803H158.462C158.527 265.254 163.291 299.252 164.163 370.39C164.945 434.099 164.138 468.922 164.038 473.017L164.038 473.02L165.168 473.018L165.175 478.502L146.848 478.532L146.84 473.047L147.472 473.046L147.472 473.046L138.165 361.56L135.378 328.193L114.217 473.017L114.217 473.018L115.133 473.017L114.813 478.501L95.8379 478.532L96.1574 473.048L97.3579 473.046L97.358 473.046Z" fill="#FCCB2D"/>
<path opacity="0.398065" fill-rule="evenodd" clip-rule="evenodd" d="M135.377 328.195L139.185 295.555L138.163 361.561L135.377 328.195Z" fill="#111828"/>
</g>
</svg>
