<svg width="56" height="56" fill="none" xmlns="http://www.w3.org/2000/svg">
    <defs>
        <linearGradient id="a" x1="38" y1="38" x2="14.202" y2="31.1" gradientUnits="userSpaceOnUse">
            <stop stop-color="#7EB429"/>
            <stop offset="1" stop-color="#3DA32F"/>
        </linearGradient>
    </defs>
	<rect width="56" height="56" rx="28" fill="#D6FFD6"/>
    <path fill-rule="evenodd" clip-rule="evenodd" d="M18 28.015C18 22.747 22.21 18 28.02 18 33.7 18 38 22.657 38 27.985 38 34.165 32.96 38 28 38c-1.64 0-3.46-.44-4.92-1.302-.51-.31-.94-.54-1.49-.36l-2.02.6c-.51.16-.97-.24-.82-.78l.67-2.244c.11-.31.09-.641-.07-.901-.86-1.583-1.35-3.315-1.35-4.998Zm8.7 0c0 .711.57 1.282 1.28 1.292.71 0 1.28-.58 1.28-1.282 0-.711-.57-1.282-1.28-1.282-.7-.01-1.28.571-1.28 1.272Zm4.61.01c0 .701.57 1.282 1.28 1.282.71 0 1.28-.58 1.28-1.282 0-.711-.57-1.282-1.28-1.282-.71 0-1.28.571-1.28 1.282Zm-7.94 1.282c-.7 0-1.28-.58-1.28-1.282 0-.711.57-1.282 1.28-1.282.71 0 1.28.571 1.28 1.282a1.29 1.29 0 0 1-1.28 1.282Z" fill="#3DA32F"/>
    
</svg>
