<svg width="14" height="14" viewBox="0 0 14 14" fill="none">
<path opacity="0.4" d="M7.65085 1.07558L9.13517 4.05843C9.24452 4.27454 9.45323 4.42462 9.69395 4.45797L13.028 4.94355C13.2227 4.97089 13.3994 5.07361 13.5188 5.23036C13.6368 5.3851 13.6875 5.5812 13.6588 5.77397C13.6355 5.93405 13.5601 6.08213 13.4448 6.19552L11.0289 8.53737C10.8522 8.70079 10.7722 8.94291 10.8149 9.1797L11.4097 12.472C11.473 12.8696 11.2096 13.2444 10.8149 13.3198C10.6522 13.3458 10.4855 13.3185 10.3388 13.2438L7.36479 11.6943C7.14407 11.5829 6.88335 11.5829 6.66264 11.6943L3.68866 13.2438C3.32325 13.4379 2.87049 13.3058 2.66711 12.9456C2.59176 12.8022 2.56509 12.6388 2.58976 12.4794L3.18456 9.18637C3.22723 8.95025 3.14655 8.70679 2.97051 8.54338L0.554657 6.20285C0.267262 5.92538 0.258594 5.46848 0.53532 5.181C0.541321 5.175 0.547989 5.16833 0.554657 5.16166C0.669349 5.04493 0.820048 4.97089 0.982749 4.95155L4.3168 4.4653C4.55685 4.43129 4.76556 4.28254 4.87559 4.0651L6.30656 1.07558C6.43392 0.81945 6.69798 0.660035 6.9847 0.666705H7.07406C7.32278 0.696721 7.53949 0.850799 7.65085 1.07558Z" fill="url(#paint0_linear_226_4853)"/>

<linearGradient id="paint0_linear_226_4853" x1="13.6666" y1="13.3332" x2="-2.06701" y2="8.53124" gradientUnits="userSpaceOnUse">
<stop stop-color="#FB9400"/>
<stop offset="1" stop-color="#FFAB38"/>
</linearGradient>

</svg>
